<?xml version="1.0" encoding="UTF-8"?>
<svg width="512px" height="512px" viewBox="0 0 512 512" version="1.1" xmlns="http://www.w3.org/2000/svg" xmlns:xlink="http://www.w3.org/1999/xlink">
    <title>icon-brand-inv</title>
    <g id="icon-brand-inv" stroke="none" fill="none" fill-rule="evenodd" stroke-width="1">
        <g id="icon-brand" transform="translate(0, 75)">
            <g id="Robin" transform="translate(23, 12.3525)">
                <ellipse id="Oval" fill-opacity="0.398874563" fill="#000000" cx="182.5" cy="326.5" rx="94.5" ry="15.5"></ellipse>
                <path d="M251.239805,20.6000812 C264.444322,32.0344411 273.249816,46.6398828 276.59071,63.7940853 C277.152448,63.9339677 277.714187,64.0738502 278.292948,64.2179715 C283.314837,65.5429112 287.994212,67.2782184 292.689462,69.5053942 C293.194281,69.7423661 293.6991,69.979338 294.219217,70.2234908 C298.793413,72.4508571 302.444694,75.0036971 304.576123,79.7857501 C304.878959,82.019168 304.805356,83.2648758 303.897905,85.3185805 C302.243914,87.4288455 300.294492,88.7588578 298.008118,90.1018017 C295.400138,91.6881997 293.160516,93.6775655 290.879718,95.6904066 C288.400099,97.8415064 285.811829,99.4217437 282.844147,100.848432 C281.503617,102.307165 281.553607,102.786728 281.527869,104.719183 C281.577839,105.737533 281.645311,106.755186 281.730888,107.771163 C281.763051,108.188924 281.795215,108.606685 281.828354,109.037105 C281.952139,110.323315 282.11871,111.596562 282.302019,112.875646 C282.372788,113.3766 282.443558,113.877554 282.516472,114.393688 C283.21954,118.972122 284.278009,123.452701 285.354557,127.95348 C290.995126,151.621408 293.791837,175.855793 287.442197,199.723236 C287.861292,199.88088 288.280387,200.038524 288.712182,200.200944 C290.190111,200.820344 291.464902,201.515776 292.82332,202.360254 C303.61825,208.964392 314.744248,214.773907 326.850228,218.570555 C329.150707,192.848983 325.17654,170.858355 315.477249,147.006294 C303.394632,117.247954 302.88943,87.9877406 315.275903,58.1615579 C325.015607,35.6759155 342.263218,16.3934189 365.155457,6.96488904 C380.610473,0.96021571 399.011746,-0.289668102 414.804384,4.96760418 C415.396169,5.16458996 415.396169,5.16458996 415.99991,5.36555524 C423.916188,8.10111405 431.366644,11.9769 437.649619,17.5324836 C438.123747,17.9381427 438.597875,18.3438018 439.08637,18.7617536 C454.915227,32.5755873 463.754355,52.1962088 465.472171,73.0124947 C466.389319,87.0852595 465.209363,101.093863 461.065986,114.624734 C460.934478,115.055241 460.80297,115.485747 460.667477,115.9293 C455.620274,132.060875 446.997576,146.360012 435.365096,158.601812 C435.095086,158.887375 434.825076,159.172937 434.546884,159.467154 C430.295515,163.934486 425.829167,167.89494 420.896633,171.593645 C419.998124,172.268711 419.107672,172.954461 418.217783,173.640848 C415.167714,175.975419 412.051858,178.161958 408.843205,180.26909 C404.771694,182.949837 400.886549,185.802871 397.099326,188.871749 C396.785327,189.126114 396.471328,189.380479 396.147813,189.642553 C388.300393,196.059878 381.061082,203.145756 374.825222,211.145854 C374.290005,211.796476 373.752964,212.4456 373.214454,213.093499 C366.07356,221.464188 366.07356,221.464188 361.118081,231.135435 C361.290357,231.551401 361.462633,231.967367 361.64013,232.395938 C362.367899,234.267719 362.468378,236.011365 362.474463,237.960678 L362.474517,238.381658 C362.474312,238.471456 362.474138,238.547952 362.473985,238.615125 L362.473016,239.040619 L362.472896,239.093281 L362.472149,239.421281 C362.472023,239.476402 362.471884,239.537477 362.471728,239.606187 C362.358065,244.492593 360.665071,248.392358 357.691295,252.267277 C357.227521,252.686096 356.763746,253.104915 356.285917,253.536426 C354.664281,255.310388 353.984915,256.947822 353.298496,259.196701 C353.169024,259.595096 353.039552,259.99349 352.906157,260.403958 C352.627945,261.263181 352.353612,262.123668 352.082803,262.985254 C351.652867,264.351029 351.211621,265.712664 350.767031,267.073734 C350.146316,268.976355 349.529136,270.880051 348.915735,272.785043 C347.562384,276.987374 346.205502,281.188032 344.807682,285.375822 C344.523339,286.235099 344.243287,287.095809 343.967823,287.957973 C342.200795,293.487744 340.438466,298.082022 335.381495,301.384533 C327.558869,303.997844 318.878779,300.641374 311.858042,297.172443 C308.89966,295.378778 306.807042,292.656755 305.718385,289.390785 C305.261404,284.1842 306.055392,279.937832 308.002908,275.112513 C307.497123,275.125765 306.991337,275.139017 306.470225,275.15267 C287.910725,275.423048 268.377536,269.903437 254.080121,257.688559 C252.685935,256.673341 252.685935,256.673341 251.257932,257.072808 C249.199798,258.30708 247.286202,259.694678 245.356989,261.119806 C235.228303,268.419324 223.90436,274.061512 212.05292,277.968167 C213.039348,280.829955 214.614885,283.294115 216.193619,285.856912 C216.459395,286.29607 216.725172,286.735227 216.999002,287.187692 C217.539244,288.069491 218.091341,288.944134 218.654947,289.811185 C219.32337,290.861741 219.448699,291.058721 219.844056,291.80893 L220.048663,292.199586 C220.086947,292.27295 220.127569,292.350868 220.170898,292.433981 C220.979623,293.814248 221.626449,294.703162 222.904407,295.673225 C225.527934,296.271523 228.077824,296.208298 230.757456,296.137268 C240.215572,296.032731 246.668606,297.809033 253.674083,304.454362 C256.714696,307.680577 259.002643,310.682942 259.171218,315.234457 C258.993143,318.343552 258.106346,319.942641 255.815824,322.052332 C252.75393,324.166497 250.527894,324.353023 246.891904,324.229769 C246.855829,324.602298 246.819754,324.974827 246.782586,325.358645 C246.396859,328.111515 246.025515,330.04802 243.893467,331.940036 C240.184044,334.630887 236.516717,334.905283 232.042501,334.510125 C228.697718,333.869138 226.845223,332.337787 224.568718,329.889765 C220.431279,325.76077 216.21451,323.654712 210.375223,323.515855 C208.337429,323.546232 206.517032,323.673118 204.556827,324.229769 C201.380836,325.124044 198.299513,325.534018 195.20679,324.173994 C191.83636,322.098606 190.203879,319.9497 188.779336,316.269632 C188.128916,310.903666 188.128916,310.903666 190.064381,308.202408 C191.99718,305.878447 194.176553,303.725634 196.632386,301.955664 L197.774648,301.955664 C197.51108,301.538962 197.247512,301.122259 196.975957,300.69293 C193.618427,295.318228 190.538057,289.807973 187.494292,284.250607 C187.183099,284.267908 186.871907,284.285209 186.551284,284.303035 C174.657409,284.942689 168.065558,285.297199 163.469534,285.311329 L163.008894,285.31159 C161.41983,285.308383 160.069414,285.261817 158.808563,285.1694 L158.450628,285.141746 L158.096794,285.111583 C157.862101,285.090636 157.629627,285.068008 157.398341,285.043682 L156.940436,284.993152 C154.655731,284.729299 152.420998,284.297019 149.228522,283.679476 C149.596137,284.598513 149.963767,285.517544 150.331463,286.436549 C150.644243,287.218684 150.956764,288.000922 151.269033,288.783261 C151.970682,290.54029 152.675425,292.295634 153.391531,294.04684 C153.596201,294.548208 153.800871,295.049576 154.011744,295.566137 C154.192855,296.005663 154.373966,296.445188 154.560565,296.898033 C154.939831,297.957748 154.939831,297.957748 154.939831,299.10001 C155.405677,299.085055 155.871522,299.070101 156.351484,299.054693 C158.114198,299.005424 159.876555,298.969937 161.639743,298.943144 C162.764304,298.922067 163.888547,298.885743 165.012706,298.849025 C172.465949,298.75444 177.730931,300.947097 183.293356,305.755023 C186.604738,309.055421 188.138126,312.268438 188.279597,316.94785 C188.238671,319.778031 188.141656,321.839334 186.253867,324.020057 C183.449973,326.116986 180.101377,327.085423 176.642805,327.085423 C176.701703,327.674402 176.760601,328.263381 176.821283,328.870207 C176.643151,331.079045 176.308987,332.127207 174.782168,333.735975 C171.737656,336.104687 168.033159,337.188918 164.20286,336.973127 C159.44642,336.303205 156.627475,334.382953 153.226439,331.083339 C148.478814,326.549404 145.255812,325.156495 138.629136,325.25602 C137.151229,325.343251 135.716865,325.47604 134.249723,325.653134 C132.606282,325.842915 131.145446,326.011609 129.839803,326.156958 L129.074821,326.241348 C119.366457,327.301527 118.766502,326.913897 114.266835,324.006671 C112.093456,322.047301 110.677256,320.145454 110.164062,317.22226 C110.005316,313.638262 111.141632,310.960313 112.997407,307.916843 C117.723242,303.191008 123.486021,302.060605 129.810072,300.813402 C129.533252,300.182459 129.256432,299.551516 128.971224,298.901453 C128.789285,298.479136 128.607345,298.05682 128.419893,297.621707 C128.007425,296.664321 127.590266,295.708945 127.168871,294.755455 C125.996423,292.030374 125.051791,289.385106 124.362019,286.497204 C123.024975,280.515171 123.024975,280.515171 119.389722,275.82057 C116.311266,274.138616 113.026896,273.148886 109.669343,272.17738 C107.381503,271.457376 105.301705,270.439051 103.181095,269.329812 C102.818505,269.144698 102.455915,268.959584 102.082337,268.76886 C98.6857429,267.014991 95.3843069,265.099899 92.115434,263.118764 C87.2896784,268.241988 87.2896784,268.241988 82.620383,273.506207 C75.7259492,281.453485 64.3603086,293.83827 53.151368,294.667053 C45.8106949,294.808937 41.6150635,293.411944 36.1624551,288.373458 C35.102559,287.215725 34.4612131,286.259221 33.8600837,284.821738 C33.2968728,285.069109 33.2968728,285.069109 32.7222839,285.321477 C26.0494346,287.925516 18.355568,288.384808 11.6952973,285.466491 C5.280796,282.162051 2.40422598,277.266059 0.163361547,270.543466 C-0.410486099,264.698417 0.443431545,260.68696 4.07203854,256.066636 C5.38698293,254.557885 6.76029845,253.12748 8.15919393,251.696146 C8.75583627,251.06425 9.35223858,250.432126 9.94843991,249.799813 C13.0663981,246.549589 16.0717858,243.681809 19.8595686,241.222392 C23.2211207,239.003998 25.5831649,237.307578 26.5314538,233.256818 C26.8381435,231.485804 27.086738,229.708824 27.3339094,227.92868 C27.7516332,225.593919 28.5593357,223.424282 29.3981237,221.212035 C29.5650624,220.762341 29.732001,220.312646 29.9039984,219.849325 C30.806804,217.488455 31.8012679,215.211493 32.936458,212.952947 C35.7676673,207.274081 37.1516421,202.603648 37.4790122,196.252668 C39.4479141,161.018139 62.3949095,126.205417 85.1190806,100.703419 C85.5306295,100.24107 85.9421784,99.7787221 86.3661985,99.3023633 C87.5463869,98.0619384 87.5463869,98.0619384 88.6730318,97.1427746 C92.1451025,94.282555 92.6431783,90.5449123 93.5242979,86.3328398 C98.160135,64.9154421 106.64597,45.5627197 121.81424,29.5262322 C122.102287,29.2151778 122.270315,29.0337294 122.41935,28.8727911 L122.59554,28.6825277 C122.745545,28.5205421 122.916967,28.335428 123.210833,28.0180897 C138.273363,12.2811185 158.245494,3.98449604 179.498459,0.969687984 C179.90849,0.909961858 180.31852,0.850235737 180.740976,0.788699731 C205.653042,-2.43450242 231.986034,4.23175294 251.239805,20.6000812 Z M350.147584,179.589219 L350.147781,179.74978 C350.147977,179.799931 350.148369,179.847657 350.149155,179.895792 L350.151306,179.993445 C350.162937,180.409598 350.210914,180.985259 350.408818,183.359863 C350.447432,183.820195 350.484911,184.266988 350.522389,184.713781 C350.641327,186.138506 350.760325,187.563225 350.879625,188.98792 C350.962814,189.981257 351.045918,190.974601 351.128937,191.967952 L351.860977,200.721062 L352.432108,200.721062 C352.722626,200.371378 353.0046,200.031979 353.286573,199.69258 C354.952363,197.537444 356.633055,195.419695 358.453523,193.392293 C361.200136,190.421297 363.787477,187.451277 366.139249,184.158267 C364.936862,183.848802 363.73459,183.538881 362.53287,183.226832 C361.776328,183.030233 361.776328,183.030233 361.034767,182.837526 C357.669462,181.973356 354.358934,181.032963 351.069955,179.910062 C350.756349,179.800976 350.451967,179.695098 350.147584,179.589219 Z M382.195587,16.0204129 C362.921869,19.5220984 339.977909,36.7126774 330.235903,57.2187276 C320.493897,77.7247778 316.523465,94.5021436 320.387413,117.222014 C324.25136,139.941884 329.467863,148.374922 339.867228,158.854294 C350.266594,169.333666 374.770558,177.134869 391.086786,173.027451 C407.403014,168.920034 428.933778,156.8557 445.774402,117.222014 C462.615027,77.5883277 445.632601,44.7771491 433.550074,31.8620082 C421.467546,18.9468674 401.469305,12.5187274 382.195587,16.0204129 Z" id="Combined-Shape" fill="#342619" fill-rule="nonzero"></path>
                <path d="M191.696169,10.4164319 C192.154878,10.412807 192.613588,10.409182 193.086197,10.4043883 C214.08865,10.3023515 233.03105,17.7286028 248.389481,32.0018017 C255.671329,39.2711684 264.987965,51.7435151 265.357966,62.4847022 C265.339551,62.8913414 265.321136,63.2979807 265.302163,63.7169423 C264.860206,63.8831276 264.418249,64.0493129 263.962898,64.2205341 C260.147229,65.7196716 256.958708,67.2886858 253.87377,69.991785 C253.548195,70.2638582 253.22262,70.5359315 252.887178,70.8162494 C250.559934,72.9273357 248.859748,75.359913 247.159589,77.9779484 C246.944181,78.3095836 246.728773,78.6412189 246.506837,78.9829037 C243.515078,83.7369416 242.394802,87.7476463 243.016797,93.379835 C243.711518,95.3239541 243.711518,95.3239541 245.302475,96.8024765 C245.686242,97.205439 246.070008,97.6084016 246.465404,98.0235751 C251.033988,102.502755 256.831617,105.80323 263.32898,106.110011 C264.052685,106.145859 264.052685,106.145859 264.791011,106.18243 C265.289686,106.204858 265.788361,106.227286 266.302148,106.250393 C266.809662,106.275027 267.317176,106.29966 267.84007,106.32504 C269.089224,106.38538 270.338439,106.443616 271.587779,106.499961 C271.690673,107.15659 271.690673,107.15659 271.795645,107.826485 C273.056733,115.801071 274.388479,123.726214 276.19485,131.599331 C280.898468,152.14799 283.451821,172.330103 279.016235,193.206878 C278.908968,193.728137 278.801701,194.249396 278.691184,194.786451 C273.538157,218.875595 257.834104,240.90733 237.289626,254.384923 C224.51331,262.561859 210.618987,268.307492 195.767534,271.499801 C195.368253,271.586019 194.968972,271.672237 194.557592,271.761067 C186.043938,273.475782 177.675287,273.851708 169.017952,273.819325 C168.463042,273.815985 167.908132,273.814756 167.336407,273.813489 C138.479326,273.710948 108.175507,265.649705 87.1978001,244.796067 C86.3734177,243.95518 85.5508495,243.112492 84.7335528,242.264739 C86.1023853,240.699773 87.449181,240.012614 89.3584807,239.214221 C89.9418184,238.966092 90.5251561,238.717963 91.1261707,238.462315 C91.7508498,238.199387 92.375529,237.936459 93.0191378,237.665564 C105.730946,232.181796 117.698011,225.757649 128.161446,216.594928 C128.89841,215.952982 128.89841,215.952982 129.650263,215.298068 C131.075827,214.03642 132.478953,212.754328 133.875643,211.460966 C134.242468,211.132272 134.609292,210.803578 134.987233,210.464923 C147.273745,198.943609 155.508365,182.530946 159.589527,166.396186 C159.692006,165.993683 159.794485,165.59118 159.900069,165.17648 C161.183751,159.886391 161.454667,154.68186 161.482355,149.247326 C161.485578,148.643112 161.4888,148.038898 161.49212,147.416375 C161.444663,142.358768 160.987573,137.150865 157.303849,133.310652 C155.256134,132.657784 155.256134,132.657784 153.303911,132.740212 C152.926774,132.740212 152.549637,132.740212 152.161072,132.740212 C152.202321,133.080671 152.243571,133.42113 152.28607,133.771907 C154.899724,158.160434 147.601721,180.379754 132.41138,199.374763 C123.314607,210.237192 110.41433,220.076567 97.3047852,225.721972 C96.9276482,225.533726 96.5505113,225.345481 96.1619459,225.151532 C96.4735259,224.853722 96.7851058,224.555912 97.1061276,224.249077 C106.243506,215.345658 114.62385,204.465813 119.590152,192.636438 C119.590152,191.883456 119.590152,191.130475 119.590152,190.354677 C117.881404,190.184388 117.03459,190.119096 115.654945,191.196967 C113.184269,194.139577 110.928367,197.192957 108.723134,200.33571 C95.6478206,218.776614 79.016159,232.741688 58.4482488,241.943866 C57.8006891,242.233863 57.1531295,242.52386 56.4859468,242.822645 C45.7022355,247.548185 45.7022355,247.548185 40.7342395,246.828261 C38.9945979,245.90622 37.4540403,244.900247 36.1628823,243.405619 C36.1628823,241.123858 36.1628823,241.123858 36.9004545,240.354126 C37.4181661,240.012679 37.4181661,240.012679 37.9463366,239.664334 C38.3347067,239.401038 38.7230767,239.137743 39.1232156,238.866469 C39.5487837,238.587824 39.9743518,238.309179 40.412816,238.02209 C41.3090051,237.413171 42.2040487,236.802569 43.0980419,236.190442 C43.559427,235.875903 44.0208121,235.561364 44.4961786,235.237294 C50.6439775,230.968865 56.4654185,226.243939 62.1234146,221.353424 C63.0107295,220.595591 63.9099621,219.854909 64.8142209,219.117343 C74.0418936,211.524197 82.884486,202.911496 89.8763297,193.206878 C90.3072382,192.633318 90.7381466,192.059758 91.1821129,191.468818 C95.40449,186.012097 95.40449,186.012097 97.3047852,179.516312 C94.3124466,180.629194 92.634804,181.688594 90.4477494,184.079834 C89.6164331,184.901866 88.7829001,185.721668 87.9477884,186.539857 C86.3760432,188.083233 84.8967157,189.672956 83.4590192,191.339577 C81.1520295,193.991041 78.6910435,196.470736 76.1979718,198.946933 C75.7637486,199.382618 75.3295255,199.818303 74.8821441,200.26719 C72.1642932,202.975748 69.3698432,205.551119 66.4481239,208.038324 C65.9859332,208.437265 65.9859332,208.437265 65.5144052,208.844266 C59.2965891,214.207733 52.8125955,219.161019 46.1627262,223.974998 C45.7250503,224.292203 45.2873744,224.609407 44.8364356,224.936224 C42.7545213,226.433514 40.6813839,227.875324 38.4485609,229.144613 C39.229435,225.053104 40.5089928,221.391332 42.1270749,217.557546 C42.3774254,216.962523 42.6277758,216.367501 42.8857126,215.754448 C47.4924169,205.038817 53.1334673,195.709832 61.1813255,187.249565 C64.0596469,184.221935 66.7107926,181.080261 69.3052222,177.804991 C69.8731374,177.105689 69.8731374,177.105689 70.4525257,176.39226 C77.6438603,168.744269 77.6438603,168.744269 81.3050349,159.550903 C76.6492166,160.172229 73.8178822,164.063937 71.0194812,167.537067 C70.0736319,168.494262 69.120071,169.443877 68.1623829,170.389268 C67.5760127,170.979143 66.9904496,171.569818 66.4055744,172.16117 C64.685283,173.898769 62.9615531,175.632923 61.2365702,177.36588 C60.4946766,178.112275 59.753807,178.859685 59.0139487,179.608089 C57.9404351,180.693594 56.863278,181.775378 55.7853439,182.856507 C55.2915213,183.358316 55.2915213,183.358316 54.7877224,183.870262 C53.2550758,185.400707 51.9405626,186.71125 49.876954,187.502475 C50.2059901,184.783002 50.749489,182.315091 51.613534,179.716857 C51.8489684,179.006985 52.0844028,178.297113 52.3269716,177.565729 C52.5812647,176.813441 52.8360128,176.061305 53.0911895,175.309315 C53.2201283,174.926701 53.3490671,174.544086 53.4819131,174.149877 C60.9602928,151.993995 72.4128923,131.209176 87.5906511,113.345244 C88.0893158,112.736174 88.5870323,112.12633 89.0839314,111.515824 C91.6457794,108.395763 94.2133734,105.547393 97.2690715,102.899057 C103.180342,97.6778502 104.015075,90.2993448 105.554656,82.862343 C106.536357,78.2599604 107.637878,73.8302813 109.304598,69.4213447 C109.549884,68.7168956 109.795171,68.0124465 110.04789,67.2866504 C117.238441,46.8992997 131.692642,30.8680076 150.446813,20.3634837 C150.989684,20.0531731 151.532555,19.7428625 152.091877,19.4231486 C157.528566,16.504875 163.403169,14.6823975 169.303662,12.9477605 C169.735951,12.8164116 170.168241,12.6850628 170.61363,12.5497336 C177.543407,10.529875 184.53359,10.4454261 191.696169,10.4164319 Z" id="Path" fill="#F56429" fill-rule="nonzero"></path>
                <path d="M371.670924,159.434644 L371.639536,159.550903 L370.79398,159.483595 L367.677544,159.216661 L366.496759,158.980463 C366.093955,158.176238 366.015275,157.478648 366.093047,156.777724 L366.421471,155.520623 L367.318144,152.038891 C367.715347,150.524997 368.069505,149.033863 368.372883,147.539337 L368.475522,147.121545 C368.954587,145.178918 369.438625,143.237564 369.925277,141.296816 L369.325531,141.178221 L369.353826,140.879654 C367.598745,140.295629 365.858569,139.881456 364.055918,139.475836 L362.675359,139.168333 C359.382571,138.416675 356.141743,137.82492 352.782656,137.457012 C351.730111,141.470843 350.81947,145.476023 350.101113,149.555636 L350.018555,150.03539 L349.512453,149.624646 L347.42786,147.917042 L347.175045,147.667142 C346.491357,146.984105 346.439929,146.830086 345.925651,145.289897 C346.196493,143.970619 346.492465,142.688025 346.827186,141.396077 L347.370941,139.323672 C347.646849,138.268956 347.928538,137.21575 348.21133,136.162853 L347.589826,136.088269 L347.63988,135.745692 L337.720829,133.545236 C336.70757,131.843129 336.128916,130.117689 335.640097,128.17669 L336.16675,128.23692 L336.49095,128.373278 C337.178957,128.656903 337.43328,128.715162 338.210339,128.893167 L339.425722,129.114324 C342.127026,129.694267 344.815154,130.169109 347.550572,130.453366 L346.695728,130.24565 C347.772884,130.504521 348.849316,130.766389 349.925589,131.028891 L350.122014,128.834033 C350.460697,125.795281 351.15747,122.896312 351.925557,119.940959 L352.316176,118.391189 L352.843579,116.33964 C353.304325,114.585516 353.4208,114.352965 353.925526,113.345244 L353.270505,113.303031 L353.354076,112.928082 L336.211487,109.50544 C335.803829,111.048099 335.30663,112.639586 334.852503,114.250113 L334.710681,114.759298 C334.057141,117.137506 333.527392,119.550238 333.545527,121.902232 L333.354419,121.901847 C332.178334,115.737984 331.366401,109.943535 331.64016,103.647759 L333.354419,103.647759 L333.550844,101.75372 C333.928412,98.7423384 334.635238,95.8262087 335.354388,92.8806998 L336.146069,89.5837104 C336.684486,87.3802835 336.797299,87.0814517 337.253579,86.1656556 L337.354356,85.9641118 L336.71362,85.8574395 L336.782906,85.5469502 L333.997005,84.7523428 L334.497258,80.2597094 L338.497196,80.8301496 L338.92576,78.6196937 C339.845539,74.0153734 340.896017,69.4386061 341.925714,64.8578228 L341.314691,64.8578228 L341.354263,64.4406611 L340.893395,64.4403578 C342.672887,57.9489993 347.09485,52.1719909 351.589067,47.2299763 C350.672206,49.4694663 350.063351,51.7970265 349.533823,54.230672 L349.246997,55.5988373 C348.898216,57.214408 348.552266,58.8303316 348.211299,60.4475794 L348.905421,60.6193423 L348.782749,60.8647411 L350.066211,61.0340905 C350.519443,61.0983313 350.971562,61.1656491 351.422692,61.2358459 L353.889782,61.8380275 C357.043249,62.6201139 360.116126,63.2556232 363.299449,63.6509206 C364.174214,63.8586193 365.049106,64.0715806 365.925339,64.2873825 L366.121764,62.1103508 C366.470738,58.9792692 367.172483,55.969753 367.925308,52.9142302 L368.315927,51.2820134 L368.721662,49.6143692 C369.062642,48.2267947 369.231708,47.6065303 369.430027,47.0974862 L369.474661,46.9859294 C369.595406,46.6919045 369.731657,46.41987 369.925277,46.0332947 L369.270723,45.987564 L369.353826,45.616133 C368.367032,45.3498888 367.378577,45.0897771 366.389587,44.8317777 C363.371337,44.0963584 359.746796,42.6555828 356.519391,42.8728134 L357.776548,41.6235524 C359.983088,39.4463109 360.388951,39.1938389 361.441098,39.0572521 C363.965451,39.6241932 366.464925,40.0377458 369.0332,40.3295971 L371.068116,40.8993325 L371.257845,39.6670924 L371.695144,37.055676 C371.832961,36.2525483 371.951497,35.5961865 372.063339,35.0439512 C372.271945,34.4024182 372.467325,33.7717966 372.555641,33.1421973 C372.862349,32.2743141 373.247828,31.6784659 373.925214,30.6314081 C375.390381,29.9052856 376.858155,29.4397445 378.423874,29.0672445 C378.058737,29.8331531 377.822969,30.607241 377.585562,31.5205769 L377.313524,32.9327507 L377.012189,34.4702654 L376.710854,36.0612589 C376.350297,37.9145635 375.991117,39.7680448 375.639443,41.6230513 L376.282764,41.7923819 L376.210893,42.040213 L377.204181,42.2095624 C377.958545,42.3421212 378.712045,42.4787008 379.464817,42.6187058 L380.996502,43.0134994 C384.121899,43.8385769 387.163961,44.4549889 390.320172,44.8172989 L393.353482,45.4628545 L393.549908,43.2657682 C393.887241,40.2385312 394.584565,37.3536503 395.353451,34.4105747 L395.74407,32.8752883 C396.233611,30.9638567 396.728226,29.0811328 397.35342,27.2087666 L401.854929,27.708077 C401.603208,28.9995831 401.336836,30.284292 401.035252,31.5652818 L400.692623,32.9528053 L399.924778,36.0969115 C399.04466,39.6490022 398.301239,43.1144656 397.924809,46.7570135 L398.56058,46.9140095 L398.496259,47.1741752 L400.442657,47.385862 L400.507756,47.3947892 C403.845132,48.2133564 407.169504,48.9795974 410.580446,49.3943047 L409.920188,49.2431352 C411.064961,49.502261 412.209131,49.7640401 413.35317,50.0263764 L413.52281,48.8498434 C414.29859,43.8292706 415.496193,38.962952 416.781688,34.0540496 C418.758372,34.7666288 420.294166,35.5801358 421.924465,36.9062508 L421.820623,37.4452683 L421.353015,37.0595294 C420.267371,39.3784352 419.787884,41.723537 419.297243,44.2178859 L418.995909,45.7943956 C418.63591,47.6359107 418.277042,49.4775826 417.924497,51.3205355 L418.590509,51.4763744 L418.495947,51.7376972 L420.789848,51.9882631 C425.129307,52.9872897 429.441974,53.8840534 433.924247,54.1727367 L433.924558,53.9059673 C434.8831,54.3730945 435.461667,55.0547459 436.442096,56.2098595 C437.652999,59.221388 438.034249,62.1121426 437.923583,65.0166986 C437.749708,64.6295954 437.559932,64.2473483 437.352765,63.8702209 L437.033954,65.1489743 C435.871745,69.8289577 434.804093,74.4227266 434.495667,79.2721075 L435.13555,79.4140599 L435.067117,79.6892691 L439.637128,80.7030865 L439.638444,85.5469502 L439.150666,85.3057902 C438.457783,84.9714963 438.268673,84.9464281 437.134019,84.796019 L435.567079,84.6556373 C434.638716,84.5703113 433.710211,84.4864736 432.781408,84.4060697 L432.577506,84.8157064 C432.476545,85.0215031 432.394045,85.1974719 432.319674,85.3759676 L432.269828,85.4991471 L432.200563,85.6838997 C431.996213,86.255034 431.812692,87.0098605 431.375738,88.8070663 L431.067149,90.1104721 C430.209697,93.7262737 429.589293,97.2318691 429.35289,100.948837 L429.98297,101.083622 L429.92434,101.365998 L431.384139,101.595511 L433.281431,101.900786 L435.169794,102.201604 L435.521408,102.268381 L436.532593,102.484421 C436.974917,102.603483 437.25168,102.741628 437.924215,103.077319 L436.209956,108.211281 L435.912179,108.166064 C436.013913,107.853794 436.113199,107.539729 436.209926,107.223679 L434.480042,106.954057 L432.245702,106.617587 C430.904325,106.412503 429.559288,106.227648 428.210051,106.082799 L428.024403,106.27162 C427.549022,106.775865 427.458706,107.147982 426.600701,110.683088 L426.210082,112.321989 C425.219699,116.324753 424.510075,120.221157 424.210113,124.336887 L424.837339,124.515787 L424.781563,124.754048 L426.91847,125.109589 L428.156764,125.462535 L428.081646,125.65907 C427.482099,127.200257 426.872154,128.46882 425.924403,129.888011 L423.638724,129.888011 L423.404353,130.850629 C422.34767,134.590052 420.582005,136.811985 417.924527,139.585495 C417.155442,140.530439 416.389703,141.47825 415.638849,142.437696 L414.663097,141.950656 C415.043719,141.147575 415.283684,140.299571 415.531119,139.201618 L415.781673,137.920495 C416.044722,136.698634 416.290365,135.48145 416.508642,134.262112 C417.015535,132.243427 417.493993,130.218222 417.924527,128.17669 L417.323791,128.123069 L417.353077,127.759528 C412.155736,126.387491 407.036268,125.209161 401.721829,124.463866 L400.781907,124.336887 C399.237602,130.188182 398.004981,136.095688 396.78197,142.020534 L397.481443,142.180837 L397.35342,142.437696 L398.302066,142.482262 C398.566439,142.501144 398.829744,142.522913 399.092066,142.547416 L401.639037,143.125762 C403.003121,143.439585 404.366921,143.746574 405.737187,144.032395 L407.067524,144.302295 L407.725162,144.446959 C408.473087,144.607277 409.157952,144.733288 409.827639,144.775557 C410.429521,144.944127 411.032923,145.116479 411.638911,145.289897 L409.968503,146.952423 C407.607647,149.283701 407.448288,149.287372 406.478278,149.309718 L406.027406,149.253996 C406.184053,149.126486 406.340268,148.997134 406.496104,148.865817 C402.874598,147.991148 399.352502,147.448581 395.63913,147.154497 L395.382682,147.67291 C395.05796,148.350658 395.013104,148.604949 394.761912,150.028981 L394.460577,152.074544 C394.280189,153.286461 394.101076,154.49857 393.924871,155.7111 C394.303292,155.7111 394.646132,155.688905 394.965252,155.646107 C394.648434,156.558555 394.227139,156.946709 393.42491,157.685831 C391.621445,158.337805 390.122721,158.410023 388.210705,158.410023 C388.913275,154.144068 389.861132,150.012203 391.067804,145.860338 L390.425925,145.790173 L390.496354,145.443176 C387.873596,144.764141 385.248187,144.16303 382.598105,143.620105 L381.46078,143.390928 L379.92509,143.09011 C378.11582,142.732427 376.306474,142.375177 374.496603,142.020534 C373.092109,147.703751 371.837206,153.324714 371.068085,159.133742 L371.670924,159.434644 Z M380.2108,119.773365 L379.998964,120.19939 C379.915633,120.369876 379.845175,120.520135 379.7814,120.669833 L379.731221,120.791006 C379.486383,121.400098 379.323324,122.086422 378.834147,124.145394 L378.532255,125.442115 C377.641846,129.238352 376.843694,133.037903 376.210862,136.886572 L376.502392,137.031651 L376.75725,137.155807 C376.877866,137.213393 376.990028,137.264796 377.101684,137.31251 L377.222102,137.362584 L377.344334,137.410497 L377.593997,137.49958 C378.162726,137.690261 378.949526,137.877539 380.684007,138.29039 L381.996486,138.597893 C385.206651,139.373759 388.353973,139.952252 391.639193,140.309214 L392.332984,137.760711 C393.639099,132.948812 394.893505,128.139807 395.63913,123.196006 C390.525261,121.759324 385.481757,120.518069 380.2108,119.773365 Z M358.496853,114.639403 L358.234747,115.169389 C357.818148,116.037865 357.694062,116.524196 356.887503,119.685348 L356.496884,121.235118 C355.53466,124.93745 354.83816,128.50999 354.496915,132.32305 C359.969162,133.807182 365.481464,134.813981 371.068085,135.745692 L372.425207,130.112594 C373.393654,126.110545 374.289647,122.105521 375.068023,118.062044 L372.527285,117.488251 C367.869533,116.440445 363.210089,115.42705 358.496853,114.639403 Z M406.496104,100.948837 L406.230159,101.486118 C405.828858,102.320665 405.731488,102.724505 405.119451,105.26293 L404.817559,106.546282 C403.826343,110.743677 403.062493,114.925557 402.496166,119.202925 L403.036542,119.468423 C403.878687,119.866589 404.361014,119.968679 407.375554,120.606742 L408.85321,120.914245 C412.251749,121.641256 415.61171,122.243151 419.067336,122.625566 L419.563568,120.534884 L420.460172,116.707249 C421.441374,112.597103 422.190215,108.589827 422.495854,104.371478 L421.444989,104.024913 C420.678583,103.778699 420.387725,103.715624 419.27562,103.474455 L413.531708,102.339285 C411.186728,101.874676 408.841662,101.410531 406.496104,100.948837 Z M386.909356,96.9446136 L386.585528,96.9504681 C385.430876,96.9889321 385.348874,97.3098393 384.315646,101.35327 L383.925028,102.909725 C382.904633,106.818414 382.216095,110.607114 381.925059,114.639403 L382.513416,114.929763 C383.128169,115.224017 383.3572,115.277881 384.456548,115.536425 L388.043267,116.273848 L389.996361,116.671596 C392.257901,117.136711 394.519564,117.601146 396.78197,118.062044 C397.18131,116.514729 397.578309,114.96686 397.972799,113.418304 L398.460515,111.501981 C399.465905,107.608407 400.397038,103.815405 400.781907,99.8079563 L398.904524,99.3093915 C394.946967,98.265994 391.015612,97.3073158 386.909356,96.9446136 Z M363.63963,91.8217928 C362.118664,97.6871276 360.770721,103.552056 359.639692,109.50544 L361.544755,110.000752 L365.032465,110.895889 C368.76647,111.872231 372.362255,112.588046 376.210862,112.928082 L376.36216,112.624945 C376.455154,112.437155 376.533646,112.274074 376.605089,112.112342 L376.653515,112.000303 C376.946322,111.307179 377.141969,110.540378 377.820212,107.882137 L378.210831,106.332367 C379.173056,102.630035 379.869556,99.0574947 380.2108,95.2444343 L379.700774,94.9928857 C378.835683,94.5783813 378.411373,94.4827452 375.562435,93.8406165 L374.17518,93.5331136 C370.665511,92.7279444 367.226239,92.1651738 363.63963,91.8217928 Z M354.640328,89.2134493 L341.925683,86.6878306 L341.683006,87.1789598 C341.258212,88.0667325 341.140477,88.579288 340.316333,92.1671766 L339.925714,93.8896387 L339.535095,95.5719918 L338.906369,98.3386185 C338.823266,98.7148002 338.754707,99.0421228 338.691563,99.3777521 L338.612775,99.8175731 C338.441598,100.822172 338.282618,102.09183 337.925745,104.941918 L353.925496,108.36456 L354.471707,107.541949 C355.082681,106.60748 355.142454,106.416817 355.451281,105.431723 L356.156488,102.467411 L356.532598,100.841879 C357.391601,97.2692497 358.113815,93.7667233 358.496853,90.1104721 C357.216287,89.7775072 355.936109,89.4828452 354.640328,89.2134493 Z M411.067461,79.8425477 C410.647985,81.5711601 410.232284,83.3005672 409.820829,85.0311028 L409.317488,87.1513133 L408.807452,89.2514693 L408.333129,91.262494 L408.136892,92.0761875 C407.760237,93.655955 407.612243,94.5940304 408.210363,96.3853148 C409.33958,96.7319867 410.474993,97.0663994 411.629115,97.318408 L413.031716,97.5975003 C416.751703,98.3800086 420.410555,98.9928034 424.210113,99.237516 L424.709105,97.1801605 C425.861672,92.3816964 426.920279,87.5919279 427.638631,82.6947489 L425.733281,82.3016183 L422.245858,81.589521 C418.522846,80.817836 414.853766,80.2078402 411.067461,79.8425477 Z M391.067773,75.2790258 L390.908967,75.597588 C390.835824,75.7458625 390.77116,75.880568 390.710871,76.0149396 L390.643014,76.1705887 L390.577639,76.3304596 C390.283342,77.0752374 390.022671,78.092086 389.199499,81.3031867 L388.710667,83.2295367 L388.208443,85.1492018 L387.536199,87.7919785 C387.165281,89.2731653 387.060787,90.0893626 387.639255,91.8217928 C388.790186,92.1685126 389.947168,92.5029781 391.12246,92.7554431 L392.532036,93.0339784 C395.844294,93.7434986 399.129133,94.2966703 402.496166,94.6739941 L402.995158,92.6166386 C404.147726,87.8181745 405.206332,83.0284059 405.924684,78.131227 C401.009134,76.7831157 396.123937,75.9136963 391.067773,75.2790258 Z M368.782407,70.1450635 L368.286244,72.0468613 L367.389571,75.5285934 C366.411552,79.2561982 365.694508,82.8458201 365.353889,86.6878306 C370.85282,88.0276865 376.318674,89.2909057 381.925059,90.1104721 L382.716406,87.2836498 C383.971972,82.7725112 385.120556,78.2976666 385.353577,73.567705 C384.073011,73.2347401 382.792833,72.9400781 381.497052,72.6706822 L368.782407,70.1450635 Z M347.06846,65.5815416 L347.010153,65.6398584 C346.953561,65.6966827 346.901955,65.7495168 346.853912,65.8027462 L346.807002,65.8562697 L346.763667,65.9091118 L346.706877,65.9849999 C346.484876,66.2991912 346.318899,66.759108 345.997756,68.0148566 L345.77786,68.8972114 C345.614945,69.5633615 345.418064,70.3884774 345.172284,71.4185268 L344.67564,73.5320525 L344.158907,75.6388933 L343.428319,78.7425684 C343.233445,79.5941029 343.200461,79.871968 343.068522,80.9834282 L343.428259,81.3397419 C344.385319,82.2706823 344.692571,82.3393669 347.680337,83.0072655 L349.068429,83.3008417 C352.780077,84.1065628 356.413854,84.7319454 360.211112,84.9765099 L360.758427,82.7049144 C361.846202,78.1625251 362.880533,73.6207566 363.63963,69.0041831 L362.4367,68.6959771 C362.337631,68.6711107 362.241159,68.6471225 362.145716,68.6236667 L361.45361,68.4589677 C360.460879,68.2306676 359.195664,67.9726338 356.102917,67.3418845 L354.104064,66.9363372 L352.085123,66.5174201 L350.168858,66.129699 C349.140677,65.9193559 348.107793,65.7273714 347.06846,65.5815416 Z M416.781658,56.4544977 L416.634066,56.7502753 C416.565908,56.8880103 416.505552,57.0126441 416.450061,57.1337599 L416.400873,57.2431627 L416.31273,57.452194 L416.251019,57.6115626 C416.119008,57.9658251 415.994835,58.3887057 415.816596,59.0820976 L415.666488,59.6774412 C415.53447,60.2089161 415.374846,60.8675311 415.172308,61.7032164 L414.781689,63.3354331 C413.846762,67.130065 413.133141,70.8137064 412.78172,74.7085855 C414.205306,75.0503731 415.629656,75.3884184 417.055091,75.7224539 L418.81734,76.1346861 L419.635651,76.3305849 C422.891706,77.105102 425.956055,77.7510259 429.35289,77.5607867 C430.277482,73.2114641 431.225773,68.8679098 432.188498,64.5271429 L433.352828,59.3066989 L430.486469,58.6737317 C425.954104,57.6792564 421.439184,56.7593858 416.781658,56.4544977 Z M396.21055,51.8909757 L395.537945,54.481527 C394.200518,59.659764 392.935737,64.8293986 392.210613,70.1450635 L393.912794,70.5382423 L397.031966,71.2502915 C400.567078,72.072285 404.023289,72.6540231 407.638943,72.9972648 C409.078274,66.9341356 410.367736,60.8432339 411.638881,54.7431769 C410.581414,54.4798757 409.523685,54.2175909 408.464823,53.9599357 L407.138951,53.637949 C403.503552,52.7274396 399.948653,52.1833228 396.21055,51.8909757 Z M373.925184,46.7570135 L373.429549,48.9631724 L372.532348,52.9962037 L372.217592,54.4043028 C371.441428,57.9190932 370.760064,61.4002175 370.496666,65.0111013 L370.672476,65.1841713 C371.177391,65.6657837 371.47365,65.7326707 374.495487,66.4149191 L375.889439,66.7224221 C379.607181,67.5796089 383.263194,68.129212 387.067836,68.4337428 L387.516944,66.7063372 L387.987172,64.8843207 C389.231957,60.0261716 390.38741,55.1671924 391.067773,50.179655 C385.415441,48.6196297 379.710112,47.6617656 373.925184,46.7570135 Z" id="Shape" fill-opacity="0.498060533" fill="#808080" fill-rule="nonzero"></path>
                <path d="M386.418139,20.4001668 C399.598019,19.0467272 413.220395,21.9130096 423.904278,29.5964987 C426.080769,31.3502034 428.060125,33.2926358 430.045975,35.2580573 L431.386805,36.5078204 C441.88998,46.4791079 447.103788,61.909513 447.664767,76.1040768 C448.222776,102.367154 440.746772,127.347619 422.418469,146.7121 C419.166444,150.074062 415.726223,152.524745 412.164926,155.108292 C410.195996,156.536653 408.189619,157.99456 406.145929,159.604295 C405.844634,159.841613 405.214966,160.029413 404.724904,160.263097 C403.713669,160.745298 402.822528,161.203003 402.314453,161.521502 C393.328179,167.154767 375.804807,170.741505 358.230647,163.36933 C341.054515,156.164123 334.450343,146.780495 332.885482,142.993514 C330.973828,138.246532 329.352378,133.389761 327.751024,128.521669 L327.31484,127.200784 C321.667198,109.8365 322.615399,92.0499418 328.324111,74.775711 L328.835318,73.2241626 C333.374129,59.7561914 340.232286,48.6136309 350.022531,38.3494906 L351.058132,37.2010497 C360.175172,27.4371837 373.119648,21.7657867 386.418139,20.4001668 Z" id="Path" stroke="#342619" stroke-width="15.9916648" fill-rule="nonzero"></path>
                <path d="M191.696169,10.4164319 C192.154878,10.412807 192.613588,10.409182 193.086197,10.4043883 C214.08865,10.3023515 233.03105,17.7286028 248.389481,32.0018017 C252.598839,36.2039451 256.0184,40.9119253 259.016547,46.0332947 C259.320761,46.5487632 259.624975,47.0642318 259.938408,47.5953205 C260.211685,48.0916704 260.484962,48.5880203 260.76652,49.099411 C261.00886,49.5391402 261.2512,49.9788694 261.500883,50.4319238 C262.010363,52.2166141 261.602493,52.9778598 260.730806,54.5898984 C259.864748,55.7619748 259.864748,55.7619748 258.873692,56.8003543 C258.552536,57.1518436 258.231381,57.5033328 257.900493,57.8654732 C256.730868,58.5829801 256.730868,58.5829801 255.032234,58.5696104 C252.944862,57.8974186 252.267475,57.1446687 250.909531,55.4455587 C240.903999,43.7396411 225.345537,36.7655852 210.110921,35.2893535 C198.02899,34.4622564 187.20063,35.3042321 176.160697,40.3288923 C175.631822,40.5649342 175.102946,40.8009761 174.558044,41.0441709 C168.619925,43.8419375 163.770282,47.8374931 159.018108,52.3081374 C158.666015,52.62286 158.313922,52.9375826 157.95116,53.2618422 C148.366268,62.1688916 142.31788,76.4198635 141.728199,89.3087634 C141.243548,105.590885 148.313015,119.304981 157.875268,132.169772 C157.6867,132.546262 157.498131,132.922753 157.303849,133.310652 C156.66743,133.216529 156.031012,133.122407 155.375307,133.025432 C153.463726,132.714231 153.463726,132.714231 152.161072,132.740212 C152.202321,133.080671 152.243571,133.42113 152.28607,133.771907 C154.899724,158.160434 147.601721,180.379754 132.41138,199.374763 C123.314607,210.237192 110.41433,220.076567 97.3047852,225.721972 C96.9276482,225.533726 96.5505113,225.345481 96.1619459,225.151532 C96.4735259,224.853722 96.7851058,224.555912 97.1061276,224.249077 C106.243506,215.345658 114.62385,204.465813 119.590152,192.636438 C119.590152,191.883456 119.590152,191.130475 119.590152,190.354677 C117.881404,190.184388 117.03459,190.119096 115.654945,191.196967 C113.184269,194.139577 110.928367,197.192957 108.723134,200.33571 C95.6478206,218.776614 79.016159,232.741688 58.4482488,241.943866 C57.8006891,242.233863 57.1531295,242.52386 56.4859468,242.822645 C45.7022355,247.548185 45.7022355,247.548185 40.7342395,246.828261 C38.9945979,245.90622 37.4540403,244.900247 36.1628823,243.405619 C36.1628823,241.123858 36.1628823,241.123858 36.9004545,240.354126 C37.4181661,240.012679 37.4181661,240.012679 37.9463366,239.664334 C38.3347067,239.401038 38.7230767,239.137743 39.1232156,238.866469 C39.5487837,238.587824 39.9743518,238.309179 40.412816,238.02209 C41.3090051,237.413171 42.2040487,236.802569 43.0980419,236.190442 C43.559427,235.875903 44.0208121,235.561364 44.4961786,235.237294 C50.6439775,230.968865 56.4654185,226.243939 62.1234146,221.353424 C63.0107295,220.595591 63.9099621,219.854909 64.8142209,219.117343 C74.0418936,211.524197 82.884486,202.911496 89.8763297,193.206878 C90.3072382,192.633318 90.7381466,192.059758 91.1821129,191.468818 C95.40449,186.012097 95.40449,186.012097 97.3047852,179.516312 C94.3124466,180.629194 92.634804,181.688594 90.4477494,184.079834 C89.6164331,184.901866 88.7829001,185.721668 87.9477884,186.539857 C86.3760432,188.083233 84.8967157,189.672956 83.4590192,191.339577 C81.1520295,193.991041 78.6910435,196.470736 76.1979718,198.946933 C75.7637486,199.382618 75.3295255,199.818303 74.8821441,200.26719 C72.1642932,202.975748 69.3698432,205.551119 66.4481239,208.038324 C65.9859332,208.437265 65.9859332,208.437265 65.5144052,208.844266 C59.2965891,214.207733 52.8125955,219.161019 46.1627262,223.974998 C45.7250503,224.292203 45.2873744,224.609407 44.8364356,224.936224 C42.7545213,226.433514 40.6813839,227.875324 38.4485609,229.144613 C39.229435,225.053104 40.5089928,221.391332 42.1270749,217.557546 C42.3774254,216.962523 42.6277758,216.367501 42.8857126,215.754448 C47.4924169,205.038817 53.1334673,195.709832 61.1813255,187.249565 C64.0596469,184.221935 66.7107926,181.080261 69.3052222,177.804991 C69.8731374,177.105689 69.8731374,177.105689 70.4525257,176.39226 C77.6438603,168.744269 77.6438603,168.744269 81.3050349,159.550903 C76.6492166,160.172229 73.8178822,164.063937 71.0194812,167.537067 C70.0736319,168.494262 69.120071,169.443877 68.1623829,170.389268 C67.5760127,170.979143 66.9904496,171.569818 66.4055744,172.16117 C64.685283,173.898769 62.9615531,175.632923 61.2365702,177.36588 C60.4946766,178.112275 59.753807,178.859685 59.0139487,179.608089 C57.9404351,180.693594 56.863278,181.775378 55.7853439,182.856507 C55.2915213,183.358316 55.2915213,183.358316 54.7877224,183.870262 C53.2550758,185.400707 51.9405626,186.71125 49.876954,187.502475 C50.2059901,184.783002 50.749489,182.315091 51.613534,179.716857 C51.8489684,179.006985 52.0844028,178.297113 52.3269716,177.565729 C52.5812647,176.813441 52.8360128,176.061305 53.0911895,175.309315 C53.2201283,174.926701 53.3490671,174.544086 53.4819131,174.149877 C60.9602928,151.993995 72.4128923,131.209176 87.5906511,113.345244 C88.0893158,112.736174 88.5870323,112.12633 89.0839314,111.515824 C91.6457794,108.395763 94.2133734,105.547393 97.2690715,102.899057 C103.180342,97.6778502 104.015075,90.2993448 105.554656,82.862343 C106.536357,78.2599604 107.637878,73.8302813 109.304598,69.4213447 C109.549884,68.7168956 109.795171,68.0124465 110.04789,67.2866504 C117.238441,46.8992997 131.692642,30.8680076 150.446813,20.3634837 C150.989684,20.0531731 151.532555,19.7428625 152.091877,19.4231486 C157.528566,16.504875 163.403169,14.6823975 169.303662,12.9477605 C169.735951,12.8164116 170.168241,12.6850628 170.61363,12.5497336 C177.543407,10.529875 184.53359,10.4454261 191.696169,10.4164319 Z" id="Path" fill="#9C6233" fill-rule="nonzero"></path>
                <path d="M156.161009,177.804991 C157.303849,178.375431 157.303849,178.375431 157.789751,179.561156 C157.949822,180.077268 158.109894,180.59338 158.274816,181.125132 C158.456847,181.697497 158.638878,182.269862 158.826425,182.859571 C159.019321,183.474034 159.212217,184.088496 159.410959,184.721579 C161.204241,190.25562 163.167209,195.46884 165.875144,200.622601 C166.256332,201.367126 166.256332,201.367126 166.645221,202.126691 C173.809224,215.074856 186.944898,224.3169 200.995968,228.414015 C219.390296,233.491334 238.218195,232.354209 255.063205,222.938847 C262.968219,218.327291 271.806364,211.483615 275.587717,202.904362 C275.776286,203.280853 275.964854,203.657343 276.159137,204.045242 C275.6447,205.425748 275.09372,206.73734 274.480591,208.073977 C274.296949,208.479559 274.113306,208.885141 273.924099,209.303014 C273.533762,210.16228 273.141461,211.020659 272.74736,211.878211 C272.187479,213.110064 271.648824,214.349101 271.114573,215.592201 C267.220321,224.474988 261.681416,231.838536 255.01661,238.842097 C254.358127,239.611402 253.703088,240.383663 253.052354,241.159511 C241.964132,253.762569 226.194896,262.137522 210.445877,267.36411 C209.648696,267.632001 209.648696,267.632001 208.835411,267.905304 C175.629647,278.863276 138.900073,275.202365 107.784532,259.814689 C98.9625286,255.331411 91.5788967,249.365172 84.7335528,242.264739 C86.1023853,240.699773 87.449181,240.012614 89.3584807,239.214221 C89.9418184,238.966092 90.5251561,238.717963 91.1261707,238.462315 C91.7508498,238.199387 92.375529,237.936459 93.0191378,237.665564 C105.730946,232.181796 117.698011,225.757649 128.161446,216.594928 C128.652756,216.166964 129.144065,215.739 129.650263,215.298068 C131.075827,214.03642 132.478953,212.754328 133.875643,211.460966 C134.242468,211.132272 134.609292,210.803578 134.987233,210.464923 C144.557163,201.491003 150.859085,189.617775 156.161009,177.804991 Z" id="Path" fill="#FDE4B6" fill-rule="nonzero"></path>
                <path d="M428.511525,23.2437925 C430.943036,25.1868865 433.156441,27.3371522 435.365096,29.5262322 C435.786952,29.9201117 436.208808,30.3139913 436.643447,30.7198065 C448.632011,42.1031224 454.799567,59.6759561 455.426765,75.9442814 C456.047726,104.421728 447.816423,131.429803 428.009555,152.392995 C422.680794,157.930347 417.037262,162.687272 410.806468,167.168775 C409.968208,167.77762 409.130105,168.38668 408.292153,168.995948 C405.257786,171.195208 402.221176,173.391592 399.164098,175.559212 C392.459893,180.315941 386.389603,185.387059 380.536531,191.156273 C379.857888,191.813254 379.178935,192.469915 378.499646,193.126228 C374.697889,196.829766 371.262274,200.692458 367.971651,204.863414 C367.092188,205.923241 366.211689,206.982211 365.330171,208.040329 C360.402087,214.091915 356.047032,220.71682 352.551117,227.708649 C348.420662,226.801382 344.433842,225.61782 340.450282,224.210473 C340.019269,224.058718 339.588256,223.906964 339.144182,223.750612 C336.064897,222.645046 336.064897,222.645046 335.417191,221.99734 C335.341338,220.957704 335.341338,220.957704 335.3458,219.641425 C335.344327,219.215888 335.342855,218.790351 335.341338,218.351919 C335.417191,216.857162 335.417191,216.857162 335.700246,215.115464 C336.036963,212.478286 336.091588,209.903761 336.104333,207.248331 C336.109216,206.441766 336.109216,206.441766 336.114198,205.618906 C336.119576,204.480778 336.123319,203.342642 336.125527,202.204504 C336.131005,200.503816 336.148713,198.803543 336.1668,197.10295 C336.207401,189.820247 335.590228,182.894895 334.274929,175.735739 C334.200502,175.307032 334.157085,175.056954 334.118577,174.835143 L334.073052,174.572915 C334.034292,174.34966 333.989999,174.09453 333.914068,173.657163 C332.165343,164.016626 329.057265,155.257321 325.33093,146.224056 C323.343891,141.289044 321.655994,136.240565 319.996657,131.18753 C319.850977,130.745612 319.705297,130.303694 319.555202,129.848384 C313.370584,110.814294 314.317203,91.307417 320.567788,72.3610486 C320.739144,71.8400785 320.9105,71.3191084 321.087048,70.7823513 C325.996268,56.1782702 333.403379,44.0863989 343.984154,32.9530175 C344.316191,32.5841696 344.648228,32.2153217 344.990326,31.8352965 C365.786605,9.46751068 403.949469,5.42140925 428.511525,23.2437925 Z M350.266594,179.733655 L350.267059,179.943663 C350.267292,179.976229 350.267641,180.008138 350.268164,180.040227 L350.270316,180.137881 C350.281946,180.554033 350.329923,181.129695 350.527828,183.504299 C350.566442,183.964631 350.60392,184.411423 350.641399,184.858216 L350.998634,189.132355 C351.081823,190.125692 351.164927,191.119036 351.247946,192.112387 L351.979987,200.865498 L352.551117,200.865498 C352.841636,200.515814 353.123609,200.176415 353.405583,199.837016 C355.071373,197.681879 356.752065,195.564131 358.572532,193.536728 C361.319146,190.565732 363.906487,187.595712 366.258259,184.302702 C365.055871,183.993237 363.853599,183.683317 362.651879,183.371268 C361.895337,183.174668 361.895337,183.174668 361.153776,182.981962 C357.788471,182.117791 354.477944,181.177399 351.188965,180.054498 C350.875359,179.945411 350.570976,179.839533 350.266594,179.733655 Z M344.86316,42.4793022 C332.17805,57.4788889 322.788254,77.5589334 322.756379,97.4640357 C322.754478,97.8871686 322.752577,98.3103015 322.750619,98.7462566 C322.747744,99.6370764 322.746387,100.527902 322.746479,101.418727 C322.745235,102.762162 322.734857,104.105325 322.72403,105.448713 C322.705658,110.153955 322.871356,114.597287 323.994573,119.193781 C324.113335,119.691928 324.232097,120.190075 324.354458,120.703318 C328.728999,138.294385 334.802732,152.912805 350.75964,162.858522 C362.049146,169.624483 375.443854,172.929752 388.460972,169.703169 C395.762286,167.40893 402.356756,164.307284 408.521944,159.744074 C408.826188,159.523575 409.130433,159.303076 409.443897,159.075895 C427.949027,145.588191 440.875011,125.998002 446.216583,103.773247 C446.381497,103.110646 446.546411,102.448045 446.716322,101.765365 C451.229014,83.1071184 448.876277,62.2053037 438.885582,45.6762966 C431.13738,33.9421058 421.356652,25.3890789 407.808031,21.066356 C407.437112,20.9480081 407.066193,20.8296602 406.684035,20.707726 C383.933162,13.8550185 360.061385,25.9301239 344.86316,42.4793022 Z" id="Combined-Shape" fill="#765945" fill-rule="nonzero"></path>
                <path d="M284.159012,209.179205 C285.799072,209.524232 287.046466,210.017183 288.471445,210.892754 C288.855165,211.124843 289.238885,211.356933 289.634233,211.596055 C290.04309,211.845609 290.451947,212.095163 290.873193,212.352279 C301.349652,218.613714 312.475311,223.855247 324.158388,227.433292 C323.427838,231.797597 322.18318,235.857041 320.694156,240.01863 C320.486068,240.613883 320.277979,241.209135 320.063585,241.822425 C318.526788,246.175365 318.526788,246.175365 317.872771,246.828261 C313.107097,247.208113 308.710059,246.518584 304.087272,245.437813 C299.919176,244.486814 295.856669,243.715414 291.587467,243.405619 C291.053626,245.122826 290.99062,245.611228 291.587467,247.398701 C292.563871,247.992945 292.563871,247.992945 293.873146,248.539582 C294.480837,248.872687 295.088529,249.205793 295.714635,249.548993 C300.504245,252.119334 305.101683,253.862571 310.425482,255.022351 C311.586699,255.284751 312.732286,255.614329 313.872834,255.955305 C314.645989,258.270794 313.959784,259.247598 313.051418,261.481445 C312.645922,262.490689 312.645922,262.490689 312.232234,263.520323 C312.019358,264.035791 311.806482,264.55126 311.587155,265.082349 C294.661221,265.704321 279.070939,261.825089 264.445034,253.245714 C264.085667,253.037844 263.726301,252.829975 263.356044,252.615806 C261.508606,251.49098 260.302161,250.622206 259.587967,248.539582 C259.962157,248.157944 260.336348,247.776306 260.721878,247.383103 C271.023018,236.651682 279.050986,223.135103 284.159012,209.179205 Z" id="Path" fill="#995F31" fill-rule="nonzero"></path>
                <path d="M345.126416,165.455383 C346.789201,166.215115 348.299564,167.185251 349.838246,168.168254 C353.312151,170.293856 356.637491,172.230733 360.54695,173.451215 C361.017397,173.606558 361.487843,173.761901 361.972546,173.921952 C366.475334,175.231273 371.03335,175.556859 375.694746,175.837527 C376.484622,175.893158 376.484622,175.893158 377.290455,175.949913 C377.764261,175.977889 378.238066,176.005866 378.72623,176.03469 C380.276092,176.375112 380.805058,176.691549 381.678793,178.020262 C381.951344,179.444743 381.981627,179.603019 381.769643,180.90183 L381.678793,181.447048 C380.647492,182.76509 379.695411,183.804994 378.48626,184.934069 C377.991134,185.417859 377.991134,185.417859 377.486005,185.911422 C376.428411,186.942336 375.359971,187.961011 374.289787,188.978836 C372.899897,190.315106 371.514888,191.656268 370.133471,193.001293 C369.795933,193.329744 369.458394,193.658194 369.110628,193.996598 C366.193888,196.866651 363.614549,199.904075 361.118081,203.150021 C360.606428,203.805513 360.606428,203.805513 360.08444,204.474247 C359.147993,205.680975 358.221535,206.894606 357.298643,208.111721 C356.996423,208.508177 356.694203,208.904633 356.382826,209.313103 C355.160158,210.918883 353.938827,212.524203 352.746049,214.152378 C352.442449,214.565675 352.138849,214.978973 351.826049,215.404794 C351.553784,215.779394 351.28152,216.153994 351.001005,216.539945 C349.897966,217.874188 349.210977,217.990006 347.482331,218.177903 C345.697547,217.999424 345.697547,217.999424 344.453915,217.182467 C342.882211,214.966502 343.160396,212.979921 343.250162,210.331546 C343.258157,209.799357 343.266152,209.267168 343.274389,208.718852 C343.291516,207.581515 343.313206,206.444238 343.339035,205.307065 C343.586244,193.916558 343.533788,183.000394 340.348075,171.976816 C339.908539,170.298958 339.728072,168.889884 339.986238,167.168775 C341.267778,165.032875 342.800304,165.204056 345.126416,165.455383 Z M350.266594,179.733655 L350.267059,179.943663 C350.270432,180.415874 350.298259,180.749758 350.527828,183.504299 C350.566442,183.964631 350.60392,184.411423 350.641399,184.858216 C350.760336,186.282941 350.879335,187.707661 350.998634,189.132355 C351.081823,190.125692 351.164927,191.119036 351.247946,192.112387 C351.491666,195.030115 351.735673,197.947819 351.979987,200.865498 L352.551117,200.865498 C352.841636,200.515814 353.123609,200.176415 353.405583,199.837016 C355.071373,197.681879 356.752065,195.564131 358.572532,193.536728 C361.319146,190.565732 363.906487,187.595712 366.258259,184.302702 C365.055871,183.993237 363.853599,183.683317 362.651879,183.371268 C361.895337,183.174668 361.895337,183.174668 361.153776,182.981962 C357.788471,182.117791 354.477944,181.177399 351.188965,180.054498 C350.875359,179.945411 350.570976,179.839533 350.266594,179.733655 Z" id="Combined-Shape" fill="#342718" fill-rule="nonzero"></path>
                <path d="M217.302912,60.8647411 C221.666112,63.8778929 224.455695,67.7448512 225.874207,72.8439862 C226.534023,79.7371973 225.679641,84.7432296 221.30285,90.1354561 C217.850309,93.7292261 213.676219,95.7424312 208.66019,95.9468161 C202.520131,95.5453609 198.555547,93.4278508 194.446126,88.8163131 C190.918845,83.8252044 190.528752,78.8606483 191.017608,72.8439862 C191.543821,70.9604905 192.300312,69.383404 193.303287,67.710024 C193.645067,67.1099922 193.986848,66.5099603 194.338985,65.8917457 C200.052049,58.5589677 209.054822,56.2963122 217.302912,60.8647411 Z" id="Path" fill="#332619" fill-rule="nonzero"></path>
                <path d="M132.161384,280.484235 C132.971375,280.549891 133.780794,280.622588 134.589918,280.69815 C135.040714,280.737858 135.491511,280.777566 135.955968,280.818478 C137.426257,281.076066 138.361796,281.342616 139.58984,282.195556 C140.237151,283.427796 140.237151,283.427796 140.804106,285.08341 C141.040554,285.736386 141.277001,286.389361 141.520613,287.062124 C141.659922,287.449645 141.79923,287.837165 141.94276,288.236429 C143.028287,291.19657 144.185113,294.128865 145.33975,297.062655 C145.581814,297.693984 145.823877,298.325314 146.073276,298.975774 C146.309263,299.574657 146.54525,300.17354 146.788388,300.790571 C147.102247,301.598036 147.102247,301.598036 147.422446,302.421813 C148.267084,304.080326 148.941469,305.046195 150.446813,306.154046 C152.288443,306.431567 152.288443,306.431567 154.344074,306.296656 C154.720468,306.288016 155.096863,306.279376 155.484663,306.270474 C157.086194,306.233452 158.686358,306.169801 160.287061,306.107252 C166.738269,305.877031 172.102329,306.334915 177.033452,310.873548 C178.475898,312.561794 179.283549,314.390618 180.160635,316.421971 C179.783498,316.986706 179.406361,317.551442 179.017796,318.133291 C175.823828,317.700652 173.407369,316.109513 170.647391,314.534616 C167.562131,312.980271 164.79021,312.272527 161.3395,312.357584 C160.79221,312.367879 160.244919,312.378173 159.681044,312.38878 C159.273706,312.402016 158.866369,312.415252 158.446688,312.428889 C158.25812,313.18187 158.069551,313.934851 157.875268,314.71065 C158.371734,315.117289 158.868199,315.523928 159.379709,315.94289 C166.596004,321.905155 166.596004,321.905155 168.732242,324.978574 C168.44592,326.975726 168.44592,326.975726 167.589403,327.830776 C164.99011,328.311301 163.722953,328.306109 161.49798,326.805766 C160.420418,325.904041 159.354463,324.988347 158.299369,324.060522 C153.542641,319.920739 148.58764,316.924385 142.165692,316.916649 C141.278463,316.915546 141.278463,316.915546 140.373309,316.914421 C139.455143,316.91773 139.455143,316.91773 138.518428,316.921106 C137.910736,316.9189 137.303045,316.916694 136.676939,316.914421 C133.582995,316.918258 130.65099,317.071345 127.590027,317.562851 C126.400668,317.625113 125.209623,317.662187 124.018654,317.669809 C123.147998,317.681942 123.147998,317.681942 122.259753,317.69432 C120.732991,317.562851 120.732991,317.562851 119.018732,316.421971 C119.186932,314.854795 119.5752,314.157195 120.62585,312.963677 C125.056065,310.275416 130.69839,309.843278 135.761216,309.057359 C137.773417,308.73039 139.010132,308.441323 140.732679,307.294927 C141.037559,304.730467 140.512077,302.9729 139.438056,300.659102 C139.028141,299.756849 139.028141,299.756849 138.609944,298.836367 C138.320462,298.215746 138.03098,297.595125 137.732726,296.955697 C132.161384,284.897848 132.161384,284.897848 132.161384,280.484235 Z" id="Path" fill="#F77127" fill-rule="nonzero"></path>
                <path d="M75.5908384,246.257821 C76.4368073,247.115709 76.4368073,247.115709 77.4122385,248.290014 C79.1207338,250.318741 80.9279447,252.119726 82.9121527,253.878546 C83.5907135,254.814424 83.5907135,254.814424 83.5951777,255.866173 C82.7551822,257.660293 81.4520578,258.966661 80.0907682,260.376217 C79.5529554,260.943101 79.0157724,261.510582 78.4791862,262.078624 C78.1978066,262.375331 77.9164271,262.672038 77.6265209,262.977736 C76.6611267,264.019779 75.7302869,265.086894 74.8006721,266.160837 C60.5900994,282.456918 60.5900994,282.456918 52.8300329,283.568178 C49.0797519,283.68594 46.8073019,283.368403 43.9484751,280.865271 C42.7750162,279.662848 41.7043349,278.43354 40.7342395,277.061594 C41.5763789,275.128017 42.6635954,273.835933 44.1354141,272.332483 C44.6014375,271.854456 45.0674608,271.376429 45.5476061,270.883916 C46.0540731,270.371679 46.5605402,269.859442 47.0823547,269.331683 C47.6071446,268.799936 48.1319345,268.26819 48.6726271,267.72033 C49.7866857,266.593631 50.9035269,265.469753 52.0217308,264.347155 C53.1571361,263.206183 54.2861093,262.059436 55.4095127,260.906687 C69.6931316,246.257821 69.6931316,246.257821 75.5908384,246.257821 Z" id="Path" fill="#9F6333" fill-rule="nonzero"></path>
                <path d="M202.446001,280.484235 C203.500114,281.473871 203.500114,281.473871 204.383471,282.87741 C204.718254,283.398945 205.053037,283.92048 205.397964,284.457819 C205.743796,285.028989 206.089628,285.600159 206.445939,286.188638 C206.986784,287.065247 206.986784,287.065247 207.538556,287.959565 C208.665704,289.808779 209.772824,291.668585 210.874441,293.533056 C211.620291,294.791979 212.367258,296.050245 213.115478,297.307766 C213.440132,297.856968 213.764787,298.40617 214.099279,298.972014 C214.980749,300.446262 214.980749,300.446262 215.993223,301.715587 C216.731493,302.731405 216.731493,302.731405 216.731493,303.872285 C217.668788,303.8454 217.668788,303.8454 218.625018,303.817971 C220.970974,303.755438 223.316859,303.716519 225.663413,303.684274 C226.673754,303.667193 227.684013,303.643935 228.694057,303.614083 C236.493486,303.389549 241.407275,304.206571 247.373872,309.61234 C249.019641,311.251936 249.577424,312.403426 249.873833,314.71065 C248.708672,315.414787 248.708672,315.414787 247.016734,315.85153 C245.485276,315.207454 244.208444,314.56351 242.802514,313.712379 C238.979942,311.463099 235.606613,309.963573 231.052698,310.075823 C230.505407,310.086118 229.958117,310.096412 229.394242,310.107019 C228.986904,310.120255 228.579567,310.133491 228.159886,310.147128 C227.971317,310.900109 227.782749,311.65309 227.588466,312.428889 C228.199472,312.925239 228.199472,312.925239 228.822822,313.431616 C229.954787,314.353279 231.084127,315.278162 232.211162,316.205827 C233.183692,316.999459 234.164005,317.784059 235.162009,318.545524 C236.950932,319.943637 237.757805,320.630621 238.481153,322.839423 C238.44544,324.408134 238.44544,324.408134 237.3026,325.549015 C235.013503,325.812688 233.672646,325.745477 231.624117,324.657702 C230.265467,323.57818 229.007743,322.475902 227.731321,321.306365 C222.52541,316.692309 215.94263,314.472671 209.041881,314.594779 C207.585239,314.681127 207.585239,314.681127 206.164693,315.002555 C204.63847,315.299207 203.248874,315.337412 201.696013,315.316743 C201.191445,315.311595 200.686877,315.306448 200.167019,315.301145 C199.787672,315.294527 199.408326,315.287909 199.017483,315.28109 C198.828915,314.339864 198.640347,313.398637 198.446064,312.428889 C201.160114,309.815321 204.746901,306.724486 208.731618,306.724486 C209.365893,302.448961 207.16754,299.603968 204.981676,296.064384 C204.278562,294.897507 203.575448,293.73063 202.872334,292.563753 C201.768971,290.746165 200.663765,288.929816 199.553468,287.116439 C199.182869,286.500689 198.812269,285.88494 198.430439,285.250531 C198.090915,284.691816 197.75139,284.1331 197.401577,283.557454 C197.07004,282.883315 197.07004,282.883315 196.731805,282.195556 C197.839047,279.984867 200.243634,280.24819 202.446001,280.484235 Z" id="Path" fill="#F77127" fill-rule="nonzero"></path>
                <path d="M26.4487482,249.110022 C28.2251209,249.902527 29.4680578,250.844931 30.8772505,252.176138 C34.8394672,255.724931 38.6804049,257.196106 43.9841888,257.131838 C44.3852651,257.129264 44.7863415,257.12669 45.1995716,257.124039 C46.1873004,257.117331 47.175004,257.1071 48.162695,257.096185 C45.3055968,259.948386 42.4484985,262.800588 39.5914002,265.652789 C39.1111399,266.135167 38.6308795,266.617546 38.1360658,267.114542 C33.3354086,271.876446 28.5199456,276.412817 21.4488262,276.705069 C18.2898398,276.649335 16.1326404,275.880228 13.8775158,273.638952 C11.8892423,270.736509 10.6052876,268.083357 11.0204176,264.511908 C14.3698406,258.712568 20.8903581,252.809264 26.4487482,249.110022 Z" id="Path" fill="#9D6233" fill-rule="nonzero"></path>
                <path d="M276.944839,73.4144264 C277.381226,73.5374569 277.817612,73.6604873 278.267223,73.7872459 C283.270549,75.2687008 288.101663,77.2860756 292.730307,79.6892691 C293.013159,80.254005 293.013159,80.254005 293.301726,80.8301496 C283.7004,83.487901 274.155362,85.5079075 264.302179,86.9623823 C263.869584,87.0267641 263.43699,87.091146 262.991286,87.1574788 C261.741224,87.342295 260.490652,87.5230634 259.239758,87.7021719 C258.509239,87.8071408 257.77872,87.9121096 257.026065,88.0202592 C255.190831,88.2263119 253.432501,88.289088 251.588092,88.2458728 C254.302871,82.1480884 258.940937,75.5586815 265.302163,72.8796387 C269.131179,71.4547513 273.161637,72.3278231 276.944839,73.4144264 Z" id="Path" fill="#F9B323" fill-rule="nonzero"></path>
                <path d="M323.015548,259.948386 C326.403635,260.202392 329.326746,261.265701 332.479686,262.479715 C333.420721,262.835946 334.361923,263.191739 335.303303,263.547062 C335.743143,263.713891 336.182982,263.88072 336.63615,264.052604 C338.178494,264.625604 339.734845,265.148533 341.300977,265.652789 C341.030245,269.301414 340.265561,272.703743 338.443879,275.920713 C336.36157,276.613627 335.712223,276.295001 333.662704,275.608754 C332.762215,275.308738 332.762215,275.308738 331.843535,275.002661 C331.216693,274.787944 330.58985,274.573226 329.944012,274.352003 C329.321588,274.146109 328.699165,273.940216 328.05788,273.728084 C322.408272,271.822797 322.408272,271.822797 320.15845,270.216311 C319.511298,266.698969 320.948854,263.648126 322.444129,260.518827 C322.632697,260.330581 322.821266,260.142336 323.015548,259.948386 Z" id="Path" fill="#765946" fill-rule="nonzero"></path>
                <path d="M317.301352,277.061594 C320.852574,277.487686 324.086669,278.70195 327.444051,279.878142 C328.045849,280.083668 328.647648,280.289194 329.267683,280.500947 C329.841491,280.70059 330.415299,280.900233 331.006495,281.105926 C331.529294,281.287507 332.052093,281.469089 332.590734,281.656172 C333.872522,282.195556 333.872522,282.195556 335.015361,283.336436 C335.301555,285.812529 335.167231,287.05662 333.943949,289.254754 C332.763336,290.710659 332.344163,291.194433 330.546681,291.498634 C327.071052,291.692701 324.266624,290.921647 321.051293,289.718237 C320.652335,289.569653 320.253376,289.42107 319.842328,289.267984 C316.119822,287.798997 316.119822,287.798997 315.015673,286.188638 C314.675159,282.78933 315.184485,280.655919 316.729932,277.632034 C316.918501,277.443789 317.107069,277.255543 317.301352,277.061594 Z" id="Path" fill="#765A46" fill-rule="nonzero"></path>
                <path d="M328.158325,243.97606 C331.282028,244.355113 334.050424,245.34552 336.979616,246.436083 C337.448459,246.604842 337.917302,246.773601 338.400353,246.947474 C341.265711,248.004447 343.835131,249.233616 346.443754,250.821343 C346.136033,253.831837 345.430377,256.101597 344.158075,258.807506 C340.700931,258.976985 338.205899,258.535242 335.015361,257.238795 C334.618336,257.083916 334.221311,256.929036 333.812255,256.769463 C331.08593,255.690122 328.453031,254.498416 325.872647,253.103103 C326.172034,249.755706 326.878967,247.085679 328.158325,243.97606 Z" id="Path" fill="#765946" fill-rule="nonzero"></path>
                <path d="M332.729682,230.855934 C337.179858,231.720687 341.35321,233.12566 345.622338,234.635101 C346.650442,234.994678 346.650442,234.994678 347.699315,235.361521 C349.376932,235.948681 351.053564,236.538488 352.72937,237.130777 C352.649089,237.974848 352.56506,238.818564 352.479374,239.662105 C352.432969,240.131983 352.386563,240.601861 352.338751,241.085978 C352.157951,242.264739 352.157951,242.264739 351.586531,242.835179 C348.266163,243.02376 345.646894,242.612974 342.515244,241.551689 C342.120751,241.422775 341.726258,241.293862 341.319811,241.161043 C334.428371,238.878005 334.428371,238.878005 332.158263,237.701217 C331.364023,236.115461 331.481198,234.895431 331.586843,233.137695 C331.94337,232.3654 332.32054,231.601783 332.729682,230.855934 Z" id="Path" fill="#765946" fill-rule="nonzero"></path>
                <path d="M215.017234,66.5691435 C216.927291,67.2577041 217.272653,67.6647131 218.445752,69.4213447 C218.697756,71.6854994 218.632312,73.0338477 217.624336,75.0900947 C215.759638,76.5883763 214.576847,76.6508813 212.233795,76.5005973 C211.017296,76.2666277 211.017296,76.2666277 209.553033,75.4109673 C208.40324,73.4147549 208.227312,71.6321091 208.731618,69.4213447 C210.554848,66.8517848 211.88566,66.1035384 215.017234,66.5691435 Z" id="Path" fill="#F9F8F2" fill-rule="nonzero"></path>
                <path d="M275.587717,202.904362 C275.776286,203.280853 275.964854,203.657343 276.159137,204.045242 C275.608056,205.507717 275.022009,206.904695 274.37345,208.323544 C274.098815,208.936812 274.098815,208.936812 273.818632,209.562469 C272.398445,212.710044 270.901579,215.815664 269.302101,218.876689 C269.113532,218.311953 268.924964,217.747217 268.730681,217.165368 C267.587748,216.475808 267.587748,216.475808 266.445003,216.024488 C265.879297,216.589223 265.313592,217.153959 264.730744,217.735808 C264.353607,217.547563 263.97647,217.359318 263.587904,217.165368 C263.815282,216.944355 264.04266,216.723341 264.276928,216.49563 C265.324168,215.474177 266.366716,214.448069 267.409273,213.421854 C267.76689,213.074409 268.124508,212.726964 268.492962,212.368991 C271.343853,209.552787 273.952873,206.613549 275.587717,202.904362 Z" id="Path" fill="#FAEAC2" fill-rule="nonzero"></path>
                <path d="M277.873396,93.9502753 C276.957464,94.4151758 276.04064,94.8783241 275.123439,95.3407233 C274.612978,95.5988253 274.102517,95.8569272 273.576588,96.1228504 C271.057256,97.330849 268.903281,97.4772654 266.159293,97.4798743 C265.579224,97.4903528 265.579224,97.4903528 264.987436,97.501043 C262.865875,97.507309 261.970883,97.437631 260.159386,96.2320362 C262.405621,95.809948 264.652816,95.3934551 266.90105,94.9821092 C267.665646,94.8414042 268.429962,94.6991761 269.193983,94.5553931 C270.292501,94.3489342 271.392133,94.1484103 272.491783,93.948047 C273.153108,93.825568 273.814433,93.7030891 274.495798,93.5768987 C276.159137,93.379835 276.159137,93.379835 277.873396,93.9502753 Z" id="Path" fill="#C8931E" fill-rule="nonzero"></path>
            </g>
        </g>
    </g>
</svg>