<?xml version="1.0" encoding="UTF-8"?>
<svg width="512px" height="512px" viewBox="0 0 512 512" version="1.1" xmlns="http://www.w3.org/2000/svg" xmlns:xlink="http://www.w3.org/1999/xlink">
    <title>icon-brand</title>
    <g id="icon-brand" stroke="none" stroke-width="1" fill="none" fill-rule="evenodd">
        <g id="Group-3"></g>
        <g id="rcp-copy" transform="translate(47.78, 177.38)" fill="#FFFFFF" fill-rule="nonzero">
            <path d="M35.28,65.52 L35.28,146.52 L0,152.64 L0,65.52 L0,65.34 L0,65.34 C0,54.54 0.84,46.44 2.52,41.04 C3.36,38.28 5.34,34.74 8.46,30.42 C17.58,17.7 29.52,10.08 44.28,7.56 L87.66,0 L87.84,0.18 L87.84,34.56 L52.02,40.68 C44.58,42 39.54,45.42 36.9,50.94 C35.94,52.86 35.46,54.96 35.46,57.24 C35.34,57.72 35.28,60.48 35.28,65.52 Z" id="Path"></path>
            <path d="M251.64,154.62 L146.7,136.44 C131.94,133.92 120,126.36 110.88,113.76 C108.12,110.04 106.2,106.44 105.12,102.96 C103.32,97.44 102.42,89.34 102.42,78.66 L102.42,78.66 L102.42,78.3 L102.42,78.3 L102.42,78.3 C102.42,67.62 103.32,59.52 105.12,54 C106.2,50.52 108.12,46.92 110.88,43.2 C120,30.6 131.94,23.04 146.7,20.52 L251.64,2.34 L251.64,36.9 L154.44,53.46 C147.12,54.66 142.14,58.14 139.5,63.9 C138.3,66.54 137.7,71.4 137.7,78.48 C137.7,85.56 138.3,90.42 139.5,93.06 C142.14,98.82 147.12,102.3 154.44,103.5 L251.64,120.06 L251.64,154.62 Z" id="Path"></path>
            <path d="M417.78,79.92 L417.78,80.1 L417.78,80.1 C417.78,90.54 416.88,98.64 415.08,104.4 C414.12,107.64 412.2,111.18 409.32,115.02 C400.08,127.74 388.14,135.36 373.5,137.88 L303.84,149.94 L303.84,214.38 L268.56,220.32 L268.56,121.5 L365.76,104.94 C373.08,103.74 378.06,100.26 380.7,94.5 C381.9,91.86 382.5,87 382.5,79.92 C382.5,72.84 381.9,67.98 380.7,65.34 C378.06,59.58 373.08,56.1 365.76,54.9 L268.56,38.34 L268.56,3.78 L373.5,21.78 C388.14,24.3 400.08,31.92 409.32,44.64 C412.2,48.6 414.12,52.14 415.08,55.26 C416.88,61.02 417.78,69.12 417.78,79.56 L417.78,79.92 Z" id="Shape"></path>
        </g>
    </g>
</svg>