<?xml version="1.0" encoding="UTF-8"?>
<svg width="1343px" height="342px" viewBox="0 0 1343 342" version="1.1" xmlns="http://www.w3.org/2000/svg" xmlns:xlink="http://www.w3.org/1999/xlink">
    <title>logo-brand-inv</title>
    <g id="logo-brand" stroke="none" fill="none">
        <text id="Robin" font-family="Baloo2-ExtraBold, Baloo 2" font-size="149" font-weight="600" fill="#FFFFFF">
            <tspan x="891" y="210">Robin</tspan>
        </text>
        <text id="Tennis" font-family="Baloo2-ExtraBold, Baloo 2" font-size="149" font-weight="600" fill="#FFFFFF">
            <tspan x="67" y="225">Tennis</tspan>
        </text>
        <g id="icon-brand" transform="translate(552, 54)" fill-rule="evenodd" stroke-width="1">
            <g id="Robin" transform="translate(14.1504, 10.5557)">
                <ellipse id="Oval" fill-opacity="0.398874563" fill="#000000" cx="112.280273" cy="200.874023" rx="58.1396484" ry="9.53613281"></ellipse>
                <path d="M154.571364,12.6738781 C162.695237,19.7086894 168.11268,28.6944592 170.168112,39.2483142 C170.513713,39.3343747 170.859314,39.4204352 171.215388,39.5091036 C174.305027,40.324252 177.183939,41.3918727 180.072618,42.7621077 C180.3832,42.907901 180.693782,43.0536943 181.013776,43.2039055 C183.827979,44.5742578 186.074372,46.1448527 187.385701,49.0869361 C187.572016,50.4610115 187.526733,51.2274138 186.968438,52.4909236 C185.950845,53.7892311 184.751494,54.6075004 183.344838,55.4337256 C181.74032,56.4097323 180.362427,57.6336585 178.959202,58.8720275 C177.433655,60.1954581 175.841262,61.1676744 174.015442,62.0454223 C173.190702,62.9428849 173.221458,63.2379283 173.205622,64.426841 C173.236366,65.0533648 173.277877,65.6794601 173.330527,66.3045244 C173.350315,66.5615452 173.370103,66.8185659 173.390491,67.0833752 C173.466648,67.8746957 173.569128,68.6580409 173.681906,69.4449773 C173.725446,69.7531815 173.768986,70.0613856 173.813845,70.3789292 C174.246397,73.1957392 174.897603,75.9523452 175.559933,78.7213794 C179.030205,93.2827019 180.750837,108.192529 176.84432,122.8766 C177.102162,122.973588 177.360004,123.070576 177.625659,123.170503 C178.534932,123.551579 179.319227,123.979432 180.154972,124.498985 C186.796384,128.562077 193.641481,132.13629 201.089496,134.472119 C202.504829,118.647324 200.059785,105.117933 194.092448,90.4433251 C186.658807,72.1349715 186.347989,54.1330826 193.968573,35.7829897 C199.960774,21.9490496 210.572097,10.0857948 224.65619,4.28503915 C234.164647,0.590757712 245.485742,-0.178213773 255.201916,3.05624085 C255.566003,3.17743327 255.566003,3.17743327 255.937445,3.30107402 C260.807811,4.98408384 265.391588,7.36860056 269.25709,10.7865866 C269.54879,11.036162 269.840489,11.2857375 270.141029,11.5428758 C279.879486,20.0416211 285.317621,32.1129019 286.37448,44.9197966 C286.938741,53.5778452 286.212792,62.1964196 283.663643,70.5210766 C283.582735,70.7859391 283.501827,71.0508016 283.418467,71.3236902 C280.313254,81.2483899 275.008274,90.0457104 267.851573,97.5772868 C267.685453,97.7529747 267.519334,97.9286627 267.34818,98.1096745 C264.732592,100.858131 261.984741,103.294739 258.950077,105.570309 C258.397284,105.985633 257.849447,106.40753 257.301957,106.829819 C255.425449,108.266127 253.508467,109.611361 251.534394,110.907741 C249.02946,112.557029 246.639185,114.312313 244.309156,116.200392 C244.115973,116.356887 243.92279,116.513381 243.723752,116.674617 C238.895749,120.622777 234.441876,124.982252 230.605361,129.904187 C230.276077,130.304472 229.945671,130.703836 229.614362,131.102446 C225.221038,136.252381 225.221038,136.252381 222.172257,142.202465 C222.278247,142.458381 222.384237,142.714298 222.493439,142.97797 C222.929558,144.099642 222.999534,145.146524 223.006335,146.308391 L223.006024,146.993875 L223.005931,147.034451 L223.005067,147.413963 C222.935137,150.420248 221.893549,152.819517 220.063981,155.203501 C219.77865,155.461173 219.49332,155.718844 219.199344,155.984325 C218.201657,157.075727 217.783688,158.083133 217.361379,159.46672 C217.281724,159.711827 217.202068,159.956933 217.119999,160.209466 C216.948834,160.73809 216.780054,161.267491 216.613443,161.797568 C216.348932,162.63784 216.077462,163.475565 215.803935,164.312942 C215.42205,165.4835 215.04234,166.654719 214.664954,167.826735 C213.832326,170.412154 212.997526,172.996543 212.137539,175.573016 C211.962601,176.101672 211.790304,176.631211 211.620828,177.161643 C210.533692,180.563749 209.449447,183.390306 206.338225,185.422125 C201.525476,187.029924 196.185186,184.964908 191.865787,182.830702 C190.045689,181.727178 188.758239,180.052496 188.088459,178.043159 C187.807309,174.839889 188.295798,172.227377 189.493977,169.258675 C189.1828,169.266828 188.871624,169.274981 188.551017,169.283381 C177.132575,169.449727 165.115086,166.053872 156.318825,158.538859 C155.461074,157.914263 155.461074,157.914263 154.582517,158.160028 C153.316282,158.919395 152.138972,159.773093 150.952054,160.649881 C144.720538,165.140795 137.753659,168.612063 130.462246,171.015572 C131.06913,172.776242 132.038454,174.292278 133.009746,175.868999 C133.173261,176.139183 133.336776,176.409368 133.505246,176.68774 C133.837621,177.230253 134.17729,177.768364 134.52404,178.301803 C135.030177,179.097297 135.030177,179.097297 135.456705,179.915437 C135.95426,180.764625 136.35221,181.311515 137.138453,181.908331 C138.752538,182.276425 140.321318,182.237527 141.969919,182.193827 C147.788877,182.129512 151.759005,183.222355 156.069016,187.310789 C157.939705,189.295668 159.347329,191.142826 159.451042,193.943074 C159.341484,195.855896 158.795897,196.83971 157.386688,198.137665 C155.502906,199.438372 154.133372,199.553129 151.896386,199.477299 C151.874192,199.706492 151.851997,199.935684 151.82913,200.171822 C151.591818,201.865483 151.363354,203.056887 150.051644,204.22092 C147.76948,205.876425 145.513214,206.045243 142.760523,205.802127 C140.702697,205.407771 139.562979,204.465631 138.162395,202.959523 C135.6169,200.419224 133.022599,199.123504 129.430069,199.038075 C128.176348,199.056764 127.056377,199.134829 125.850392,199.477299 C123.896413,200.027488 122.000677,200.279718 120.097927,199.442985 C118.024323,198.166135 117.019964,196.844054 116.143537,194.579949 C115.743376,191.278623 115.743376,191.278623 116.93414,189.616716 C118.123265,188.186935 119.46409,186.862451 120.975003,185.773504 L121.677762,185.773504 C121.515606,185.517135 121.35345,185.260765 121.18638,184.996627 C119.120712,181.689925 117.225562,178.299827 115.352933,174.880744 C115.161477,174.891389 114.970021,174.902033 114.772763,174.913 C107.457303,175.306426 103.401994,175.524521 100.574467,175.53333 L100.169212,175.533121 C99.0444835,175.528274 98.1137931,175.487161 97.2322642,175.407362 L96.9229417,175.377587 C96.8203574,175.367124 96.7182176,175.356122 96.6162864,175.344576 L96.3108828,175.308305 C94.9881348,175.144034 93.6607754,174.887273 91.8105167,174.529365 C92.036686,175.094788 92.2628643,175.660208 92.4890838,176.225611 L93.0659087,177.669389 C93.4975878,178.750374 93.9311694,179.830322 94.3717428,180.907724 C94.4976629,181.216183 94.623583,181.524642 94.7533188,181.842448 C94.8647445,182.112859 94.9761702,182.38327 95.0909724,182.661875 C95.3243103,183.313849 95.3243103,183.313849 95.3243103,184.016608 C95.6109144,184.007407 95.8975184,183.998207 96.1928075,183.988727 C97.2772895,183.958415 98.3615526,183.936582 99.4463264,183.920098 C100.138195,183.907131 100.829868,183.884783 101.521489,183.862193 C106.106981,183.804001 109.346178,185.152999 112.768374,188.111001 C114.805649,190.141519 115.749042,192.118277 115.83608,194.997212 C115.810901,196.738437 115.751214,198.006622 114.589781,199.348277 C112.864729,200.63838 110.804558,201.234196 108.676726,201.234196 C108.712962,201.596556 108.749198,201.958916 108.786532,202.332256 C108.676939,203.691209 108.471349,204.336075 107.531998,205.325844 C105.658909,206.783157 103.379776,207.450213 101.023244,207.317451 C98.0969187,206.905292 96.3626066,205.723887 94.2701722,203.693851 C91.3492702,200.904419 89.3663688,200.047453 85.2894101,200.108684 C84.3801505,200.162352 83.4976804,200.244048 82.5950442,200.353002 C73.4951345,201.40384 73.4951345,201.40384 70.3008846,199.340042 C68.9637476,198.13457 68.0924527,196.964488 67.776718,195.166039 C67.679052,192.96104 68.3781527,191.313474 69.519889,189.441026 C72.4273852,186.53353 75.9728447,185.838068 79.8636187,185.070746 C79.6933096,184.682568 79.5230004,184.294389 79.3475303,183.894448 C79.2355951,183.634625 79.1236598,183.374802 79.0083326,183.107105 C78.7545683,182.518088 78.4979173,181.930308 78.2386608,181.343688 C77.5173309,179.667125 76.9361608,178.039665 76.5117891,176.262928 C75.6891933,172.582576 75.6891933,172.582576 73.4526613,169.694296 C71.558689,168.6595 69.5380316,168.050584 67.4723494,167.45288 C66.0647916,167.009909 64.7852289,166.3834 63.4805564,165.700959 C63.2574786,165.58707 63.0344007,165.473182 62.8045629,165.355842 C60.7148614,164.276801 58.6837044,163.098571 56.6725815,161.879708 C53.7036107,165.031692 53.7036107,165.031692 50.8308997,168.27042 C46.589207,173.159859 39.5966742,180.779405 32.7005487,181.2893 C28.1843142,181.376592 25.6030176,180.517114 22.2483855,177.417264 C21.5963009,176.704987 21.2017229,176.116513 20.8318875,175.232124 L20.7025584,175.288927 L20.522208,175.36814 C20.4204509,175.412833 20.3338778,175.450857 20.1318739,175.539581 C16.0265076,177.141675 11.2929764,177.424247 7.1953489,175.628798 C3.24892723,173.595793 1.47916247,170.58361 0.100505639,166.44764 C-0.252545158,162.851565 0.27281433,160.383579 2.50525809,157.540997 C3.31425707,156.612761 4.15916799,155.732727 5.01981658,154.852121 C5.38689145,154.463357 5.75381866,154.074453 6.12062221,153.685432 C8.03889725,151.685782 9.88791509,149.921425 12.2182893,148.408308 C14.2864317,147.043476 15.7396425,145.999779 16.3230624,143.507612 C16.5117484,142.418024 16.6646923,141.324765 16.8167607,140.229559 C17.0737587,138.793134 17.570685,137.458298 18.0867363,136.097248 C18.1894427,135.820581 18.2921491,135.543913 18.3979678,135.258862 C18.9534048,133.806374 19.5652332,132.405509 20.2636412,131.015973 C22.0054985,127.52214 22.8569673,124.648729 23.0583767,120.741387 C24.2697128,99.0638941 38.3874932,77.645911 52.3681844,61.9562049 C52.6213834,61.6717523 52.8745824,61.3872997 53.1354541,61.0942274 C53.8615466,60.3310754 53.8615466,60.3310754 54.5546973,59.7655742 C56.6908346,58.0058688 56.9972679,55.7063425 57.5393629,53.1149307 C60.3914893,39.9382114 65.6122667,28.0317514 74.9443078,18.165553 C75.3696278,17.7062618 75.3696278,17.7062618 75.8035401,17.2376919 C85.0705261,7.55576628 97.3580678,2.45139893 110.433622,0.596585381 C110.685887,0.559839815 110.938152,0.523094252 111.198061,0.485235186 C126.524821,-1.49778958 142.725783,2.60351988 154.571364,12.6738781 Z M215.42283,110.489461 L215.422913,110.577068 C215.423859,110.893195 215.435688,111.035128 215.58355,112.809291 C215.607307,113.092503 215.630365,113.367385 215.653423,113.642267 C215.726597,114.518807 215.799809,115.395344 215.873207,116.271865 C215.924387,116.883 215.975516,117.494139 216.026592,118.105283 C216.176537,119.900369 216.326658,121.695441 216.476968,123.490497 L216.828348,123.490497 C217.007084,123.27536 217.180564,123.06655 217.354044,122.85774 C218.378895,121.531826 219.412915,120.228914 220.532929,118.981586 C222.22274,117.153728 223.814561,115.326469 225.261452,113.300496 C224.521702,113.110103 223.782023,112.919429 223.042684,112.727446 C222.86814,112.682088 222.75905,112.653739 222.666809,112.629769 L222.490393,112.583924 C222.399017,112.560179 222.292087,112.532391 222.120999,112.487931 C220.050548,111.956264 218.013798,111.377702 215.990304,110.686855 C215.797363,110.619741 215.610097,110.554601 215.42283,110.489461 Z M235.139863,9.85630871 C223.282009,12.010666 209.166096,22.5869011 203.172479,35.2029281 C197.178863,47.8189551 194.736116,58.1409673 197.11335,72.1190125 C199.490583,86.0970578 202.699955,91.2853523 209.098002,97.7326221 C215.496049,104.179892 230.57173,108.97946 240.610034,106.452436 C250.648338,103.925412 263.894805,96.5030187 274.255736,72.1190125 C284.616667,47.7350063 274.168495,27.5484413 266.734909,19.6026027 C259.301322,11.6567641 246.997717,7.7019514 235.139863,9.85630871 Z" id="Combined-Shape" fill="#342619" fill-rule="nonzero"></path>
                <path d="M117.938073,6.40854699 C118.220286,6.40631679 118.5025,6.40408659 118.793266,6.40113731 C131.714697,6.33836078 143.368712,10.9072458 152.817747,19.6886084 C157.29779,24.1609727 163.029705,31.8343892 163.257342,38.4427367 C163.246013,38.6929151 163.234683,38.9430936 163.223011,39.2008532 C162.951103,39.3030961 162.679196,39.405339 162.399049,39.5106801 C160.051518,40.4330011 158.08983,41.3983126 156.19187,43.0613521 C155.991565,43.2287409 155.79126,43.3961297 155.584885,43.5685909 C154.153084,44.8674038 153.107072,46.3640089 152.061075,47.9747144 C151.928549,48.1787478 151.796022,48.3827812 151.65948,48.5929974 C149.818847,51.517845 149.129615,53.9853683 149.512287,57.4504844 C149.939703,58.6465733 149.939703,58.6465733 150.918515,59.5562111 C151.154621,59.8041275 151.390728,60.0520439 151.633989,60.307473 C154.444739,63.0632182 158.011639,65.0937843 162.00904,65.2825265 C162.454289,65.3045811 162.454289,65.3045811 162.908532,65.3270812 C163.215334,65.3408795 163.522136,65.3546778 163.838235,65.3688941 C164.150476,65.3840496 164.462716,65.3992051 164.784418,65.4148198 C165.552941,65.4519427 166.321501,65.4877714 167.090138,65.5224367 C167.153441,65.9264178 167.153441,65.9264178 167.218023,66.33856 C167.993888,71.2447996 168.813224,76.1206202 169.924566,80.9644324 C172.818393,93.6066737 174.389304,106.023403 171.660379,118.867513 C171.594385,119.188209 171.528391,119.508906 171.460397,119.839321 C168.290077,134.65979 158.628404,148.214471 145.988735,156.506349 C138.128306,161.537081 129.580041,165.071992 120.442917,167.036011 C120.197265,167.089055 119.951614,167.142099 119.698519,167.19675 C114.460626,168.251702 109.311944,168.482984 103.985654,168.463061 C103.644254,168.461007 103.302855,168.46025 102.95111,168.459471 C85.1972413,168.396384 66.5532904,163.43683 53.647084,150.606956 C53.1398956,150.089612 52.6338234,149.571162 52.1309944,149.049595 C52.9731472,148.086775 53.8017422,147.66401 54.976409,147.172811 C55.3352984,147.020154 55.6941878,146.867496 56.0639527,146.710213 C56.4482768,146.548451 56.8326008,146.386689 57.2285711,146.220025 C65.0493124,142.846222 72.411862,138.893866 78.8493274,133.256645 C79.302733,132.861698 79.302733,132.861698 79.7652982,132.458772 C80.6423543,131.682563 81.5056061,130.893776 82.3648976,130.098055 C82.5905807,129.895831 82.8162638,129.693607 83.0487858,129.485256 C90.6078703,122.396947 95.6740918,112.299312 98.1849632,102.372654 C98.2480117,102.12502 98.3110602,101.877386 98.3760193,101.622249 C99.1657846,98.3676039 99.3324611,95.1655974 99.3494958,91.8220856 C99.3514784,91.4503524 99.3534611,91.0786191 99.3555038,90.6956212 C99.3263063,87.5840079 99.045089,84.3799265 96.7787351,82.0172957 C95.5189107,81.6156289 95.5189107,81.6156289 94.317836,81.6663413 C94.0858084,81.6663413 93.8537808,81.6663413 93.614722,81.6663413 C93.6401,81.8758035 93.665478,82.0852658 93.6916251,82.3010753 C95.2996346,97.3057355 90.8096525,110.975825 81.4640327,122.662208 C75.8673852,129.345147 67.9306914,135.398669 59.8652487,138.871916 C59.6332211,138.756101 59.4011935,138.640286 59.1621347,138.520962 C59.3538294,138.337739 59.5455241,138.154516 59.7430277,137.965741 C65.3646568,132.488051 70.5205328,125.794397 73.5759722,118.516558 C73.5759722,118.053298 73.5759722,117.590039 73.5759722,117.11274 C72.5246919,117.007973 72.0037031,116.967803 71.154898,117.630947 C69.634853,119.441341 68.2469444,121.319886 66.8902093,123.253415 C58.8458271,134.598894 48.6134572,143.190687 35.9593718,148.852183 C35.5609709,149.030599 35.1625699,149.209016 34.7520962,149.392838 C28.1175863,152.300153 28.1175863,152.300153 25.0611044,151.857231 C23.9908171,151.289959 23.0430131,150.67105 22.2486483,149.751504 C22.2486483,148.347686 22.2486483,148.347686 22.7024281,147.874121 C23.0209421,147.66405 23.0209421,147.66405 23.3458907,147.449736 C23.5848293,147.287748 23.8237679,147.12576 24.0699471,146.958863 C24.3317712,146.787431 24.5935954,146.615999 24.8633536,146.439371 C25.41472,146.064744 25.9653815,145.68908 26.5153969,145.312479 C26.7992569,145.118964 27.0831168,144.925449 27.3755786,144.726069 C31.1579158,142.099985 34.7394664,139.193048 38.2204602,136.184236 C38.7663668,135.71799 39.3196056,135.262297 39.8759367,134.808522 C45.5531181,130.136957 50.993385,124.838127 55.2950075,118.867513 C55.5601172,118.514639 55.8252269,118.161765 56.0983702,117.798198 C58.6961218,114.441036 58.6961218,114.441036 59.8652487,110.444606 C58.0242592,111.129289 56.9921158,111.781069 55.6465646,113.252242 C55.1351102,113.757984 54.622292,114.262354 54.1085026,114.765733 C53.141511,115.71527 52.2313778,116.693322 51.3468575,117.718685 C49.9275182,119.349957 48.413435,120.87555 46.8796115,122.398992 C46.6124625,122.66704 46.3453135,122.935088 46.0700691,123.211259 C44.3979538,124.877658 42.6787121,126.462114 40.88117,127.992328 C40.5968144,128.237771 40.5968144,128.237771 40.3067142,128.488171 C36.4812999,131.787961 32.4921242,134.835392 28.400896,137.797118 C28.1316228,137.992273 27.8623495,138.187428 27.5849164,138.388497 C26.3040512,139.309682 25.0285858,140.196732 23.6548763,140.977643 C24.135297,138.460406 24.9225249,136.207558 25.9180246,133.848881 C26.0720488,133.482802 26.226073,133.116724 26.3847646,132.739553 C29.2189674,126.146928 32.6895355,120.407416 37.6408546,115.202369 C39.4116968,113.339667 41.0427728,111.406801 42.6389551,109.391743 C42.988356,108.961508 42.988356,108.961508 43.3448156,108.522582 C47.7691719,103.817275 47.7691719,103.817275 50.0216523,98.1612003 C47.1572329,98.5434612 45.4152986,100.937774 43.6936261,103.074563 C43.1117071,103.663462 42.5250437,104.247698 41.935841,104.829335 C41.5750859,105.192246 41.2148274,105.55565 40.854992,105.91947 C39.7966097,106.988501 38.7361118,108.055412 37.674843,109.121587 C37.2184046,109.580794 36.7625961,110.040626 36.3074098,110.501071 C35.6469473,111.168911 34.9842433,111.834461 34.3210612,112.499609 C34.0172445,112.808339 34.0172445,112.808339 33.7072902,113.123306 C32.7643533,114.064888 31.9556196,114.871179 30.6860166,115.357968 C30.8884509,113.684854 31.2228302,112.166511 31.7544203,110.567988 C31.8992677,110.131251 32.044115,109.694513 32.1933516,109.244541 C32.3498015,108.781707 32.5065313,108.318967 32.6635248,107.856317 C32.7428524,107.620919 32.8221799,107.385522 32.9039114,107.142991 C37.5048676,93.5119305 44.5509005,80.7243955 53.8887795,69.7338901 C54.1955752,69.3591696 54.5017874,68.9839725 54.8074968,68.6083682 C56.3836338,66.6887994 57.9633059,64.9363841 59.8432764,63.3070368 C63.4800931,60.0947711 63.9936495,55.555261 64.9408531,50.9797618 C65.5448292,48.1482178 66.2225227,45.422927 67.247946,42.7103976 C67.3988546,42.2769963 67.5497632,41.843595 67.7052448,41.3970603 C72.1291191,28.8540614 81.0218401,18.9910593 92.5600509,12.5283152 C92.8940438,12.3374014 93.2280367,12.1464877 93.5721506,11.9497887 C96.9169891,10.1543664 100.531246,9.03311564 104.161432,7.96590735 C104.427392,7.88509701 104.693351,7.80428666 104.96737,7.72102752 C109.230807,6.47834109 113.531408,6.42638519 117.938073,6.40854699 Z" id="Path" fill="#F56429" fill-rule="nonzero"></path>
                <path d="M228.664728,98.0896737 L228.645417,98.1612003 L228.125203,98.1197897 L226.207864,97.9555629 L225.481404,97.8102459 C225.233586,97.3154586 225.185179,96.8862776 225.233027,96.4550453 L225.435085,95.6816334 L225.986749,93.5395522 C226.231122,92.6081526 226.449012,91.6907553 226.63566,90.7712717 L226.698808,90.5142319 C226.993545,89.3190609 227.291341,88.1246734 227.590746,86.930658 L227.221762,86.8576947 L227.239171,86.6740058 C226.159384,86.3146939 225.088768,86.0598804 223.979715,85.8103288 L223.130348,85.6211425 C221.104511,85.1586963 219.110642,84.7946288 217.044017,84.5682791 C216.396455,87.0377256 215.836197,89.50185 215.394239,92.0117682 L215.343447,92.3069292 L215.032075,92.0542253 L213.749562,91.0036489 L213.594022,90.849902 C213.173393,90.4296738 213.141753,90.3349161 212.825352,89.3873391 C212.991983,88.5756736 213.174075,87.786578 213.380007,86.9917273 L213.714544,85.7167121 C213.884292,85.0678148 214.057596,84.4198464 214.23158,83.772068 L213.849209,83.7261809 L213.880004,83.5154158 L207.777463,82.16162 C207.154072,81.1144252 206.798064,80.0528753 206.497326,78.8587057 L206.82134,78.8957615 L207.0208,78.9796534 C207.444085,79.1541491 207.600553,79.1899922 208.078627,79.2995069 L208.826372,79.4355703 C210.488307,79.7923712 212.142136,80.0845101 213.825059,80.2593952 L213.29913,80.131601 C213.961833,80.2908672 214.624091,80.4519775 215.286251,80.613478 L215.407099,79.2631259 C215.615468,77.3935814 216.044147,75.610036 216.5167,73.7918009 L216.757023,72.8383289 L217.081499,71.5761459 C217.364966,70.4969486 217.436625,70.3538751 217.74715,69.7338901 L217.344158,69.7079195 L217.395574,69.4772379 L206.848864,67.3715112 C206.598059,68.3206079 206.292165,69.2997451 206.012771,70.2905966 L205.925517,70.6038651 C205.523436,72.0670205 205.197517,73.5514157 205.208674,74.9984435 L205.091097,74.9982068 C204.36753,71.2059862 203.868001,67.6410423 204.036426,63.7676645 L205.091097,63.7676645 L205.211945,62.602386 C205.444238,60.7496808 205.879102,58.9555776 206.321547,57.1433993 L206.808616,55.1149781 C207.13987,53.7593541 207.209276,53.5755025 207.489995,53.0120733 L207.551997,52.8880766 L207.157794,52.8224481 L207.200421,52.6314244 L205.486439,52.1425546 L205.794211,49.3785321 L208.255111,49.7294866 L208.518778,48.3695381 C209.084658,45.536802 209.730948,42.7210175 210.364453,39.9027621 L209.988531,39.9027621 L210.012877,39.6461099 L209.729335,39.6459233 C210.82414,35.6522164 213.544683,32.0980022 216.30968,29.0575049 C215.745595,30.4353162 215.371007,31.8673112 215.045223,33.3645736 L214.868758,34.2063159 C214.654176,35.2002705 214.441335,36.1944423 214.231561,37.1894287 L214.658609,37.2951032 L214.583137,37.4460809 L215.372767,37.5502705 C215.65161,37.5897936 215.929769,37.6312099 216.20732,37.6743974 L217.725159,38.0448802 C219.66528,38.5260467 221.55582,38.9170338 223.51431,39.1602344 C224.052495,39.2880177 224.590759,39.4190389 225.129847,39.5518076 L225.250695,38.2124229 C225.465395,36.2860738 225.897133,34.434516 226.360297,32.5546533 L226.600619,31.5504575 L226.850241,30.5244654 C227.060024,29.6707819 227.164039,29.2891739 227.286052,28.9759925 L227.313512,28.9073589 C227.387799,28.7264647 227.471625,28.5590997 227.590746,28.3212653 L227.188042,28.2931302 L227.239171,28.0646131 C226.63206,27.9008105 226.023929,27.7407809 225.415469,27.5820507 C223.558537,27.1295955 221.328595,26.2431808 219.342984,26.3768285 L220.116431,25.6082402 C221.47397,24.2687264 221.723671,24.113397 222.370988,24.0293641 C223.924057,24.3781658 225.461819,24.6325975 227.04191,24.8121545 L228.29386,25.1626753 L228.410588,24.4045588 L228.679629,22.7979256 C228.764419,22.3038139 228.837347,21.8999976 228.906156,21.5602434 C229.034498,21.1655503 229.154702,20.7775702 229.209037,20.3902191 C229.397734,19.8562674 229.634894,19.4896811 230.051645,18.8454952 C230.953066,18.3987597 231.856091,18.1123428 232.819376,17.883168 C232.594731,18.3543813 232.449678,18.8306268 232.303617,19.3925424 L232.13625,20.2613603 L231.950858,21.2072922 L231.765467,22.1861261 C231.54364,23.3263428 231.32266,24.4666682 231.106298,25.607932 L231.502091,25.71211 L231.457873,25.8645842 L232.068978,25.9687738 C232.533089,26.0503285 232.996668,26.1343569 233.4598,26.2204928 L234.402145,26.4633834 C236.324997,26.9709994 238.196578,27.3502373 240.138387,27.5731429 L242.004584,27.9703109 L242.125432,26.6185879 C242.332971,24.7561276 242.761988,22.9812497 243.235033,21.1705684 L243.475356,20.2260074 C243.776538,19.050029 244.080842,17.8917126 244.465483,16.7397685 L247.234966,17.0469614 C247.080099,17.8415404 246.916218,18.6319374 246.730672,19.4200464 L246.519875,20.2736985 L246.047471,22.2080608 C245.505992,24.3934291 245.048614,26.5255013 244.817021,28.766522 L245.208169,28.8631113 L245.168597,29.0231742 L246.366088,29.1534112 L246.406139,29.1589035 C248.459408,29.6625142 250.504675,30.133932 252.603204,30.3890742 L252.196991,30.2960695 C252.901294,30.4554926 253.605227,30.6165481 254.309079,30.7779464 L254.413448,30.0541029 C254.890734,26.9652739 255.627541,23.9713474 256.418421,20.9512219 C257.634546,21.3896251 258.579418,21.8901226 259.582435,22.7059941 L259.518547,23.0376163 L259.230859,22.8002964 C258.562933,24.226967 258.267936,25.6697542 257.966077,27.2043634 L257.780686,28.1742864 C257.559202,29.3072498 257.338415,30.4403096 257.121517,31.5741576 L257.53127,31.6700351 L257.473092,31.8308098 L258.884379,31.9849665 C261.554164,32.599602 264.207464,33.1513219 266.965113,33.3289298 L266.965304,33.1648041 C267.555032,33.4521968 267.910986,33.8715722 268.51418,34.5822378 C269.259169,36.4350337 269.493727,38.2135253 269.425642,40.0005079 C269.318668,39.7623487 269.201911,39.5271772 269.074455,39.2951554 L268.878312,40.0818885 C268.163281,42.9611752 267.506424,45.7874197 267.31667,48.7709255 L267.710348,48.8582595 L267.668246,49.0275777 L270.479874,49.651313 L270.480683,52.6314244 L270.180586,52.4830545 C269.7543,52.2773854 269.637953,52.2619626 268.939875,52.1694258 L267.975839,52.0830581 C267.404679,52.0305626 266.833431,51.9789828 266.261999,51.9295155 L266.136552,52.1815381 C266.074437,52.3081513 266.02368,52.4164134 265.977925,52.5262301 L265.947257,52.6020143 L265.904643,52.7156805 C265.77892,53.0670619 265.666012,53.5314571 265.397182,54.6371599 L265.207328,55.43906 C264.679794,57.6636254 264.2981,59.8203882 264.152657,62.1071945 L264.540304,62.1901193 L264.504233,62.3638467 L265.402351,62.505051 L266.56963,62.6928665 L267.731416,62.8779401 L267.947741,62.9190234 L268.569857,63.0519387 C268.84199,63.12519 269.012264,63.2101813 269.426031,63.41671 L268.37136,66.5753001 L268.188157,66.547481 C268.250747,66.3553618 268.311831,66.1621378 268.371341,65.9676934 L267.307057,65.8018126 L265.932414,65.5948043 C265.107153,65.4686296 264.27964,65.3549003 263.449543,65.2657845 L263.335326,65.3819536 C263.042856,65.6921829 262.98729,65.9211217 262.459416,68.0960402 L262.219093,69.1043488 C261.609776,71.5669864 261.173191,73.9641886 260.988644,76.4963268 L261.374535,76.6063924 L261.34022,76.752979 L262.654918,76.9717199 L263.416759,77.1888645 L263.370544,77.3097794 C263.001682,78.2579705 262.626423,79.0384341 262.043334,79.9115691 L260.637106,79.9115691 L260.492912,80.5038047 C259.842805,82.8044265 258.756507,84.1714362 257.121535,85.8777947 C256.648367,86.4591571 256.177259,87.0422828 255.715307,87.6325669 L255.114991,87.3329233 C255.349163,86.8388403 255.496798,86.3171187 255.649028,85.6416205 L255.803178,84.8534296 C255.965015,84.1016987 256.116142,83.3528454 256.250434,82.6026668 C256.562292,81.3607024 256.856656,80.1147263 257.121535,78.8587057 L256.751942,78.825716 L256.76996,78.6020535 C253.572377,77.7579289 250.422704,77.03298 247.153078,76.5744486 L246.574806,76.4963268 C245.624696,80.096245 244.866346,83.7307454 244.113907,87.3759147 L244.544247,87.4745382 L244.465483,87.6325669 L245.049123,87.6599852 C245.211774,87.6716021 245.373768,87.6849956 245.535158,87.7000703 L247.102142,88.0558889 C247.941373,88.2489634 248.78043,88.4378335 249.623465,88.6136803 L250.441933,88.7797325 L250.846535,88.8687346 C251.306685,88.9673676 251.728037,89.0448942 252.140051,89.0708993 C252.51035,89.1746097 252.881584,89.280646 253.254408,89.3873391 L252.226716,90.410182 C250.774236,91.8444643 250.676193,91.8467229 250.079409,91.8604713 L249.802017,91.826189 C249.898392,91.7477404 249.994501,91.6681584 250.090376,91.5873681 C247.862301,91.0492416 245.695387,90.7154354 243.410793,90.5345047 L243.253017,90.8534506 C243.053237,91.2704242 243.02564,91.426873 242.871098,92.3029861 L242.685707,93.5614868 C242.574726,94.3070999 242.464529,95.0528311 242.356122,95.7988214 C242.588939,95.7988214 242.799866,95.7851664 242.9962,95.7588352 C242.801283,96.320205 242.542088,96.5590106 242.048528,97.0137438 C240.938975,97.4148604 240.016908,97.4592914 238.840571,97.4592914 C239.272816,94.8347296 239.85597,92.2926637 240.598356,89.7382936 L240.20345,89.6951262 L240.24678,89.4816414 C238.63317,89.0638756 237.017928,88.6940519 235.387506,88.3600257 L234.687785,88.2190279 L233.742975,88.0339543 C232.62985,87.8138958 231.516678,87.5941032 230.403184,87.3759147 C229.539091,90.8724248 228.767031,94.3306344 228.293842,97.9045481 L228.664728,98.0896737 Z M233.918754,73.6886913 L233.788425,73.9507968 C233.737157,74.0556857 233.693809,74.1481298 233.654572,74.2402295 L233.6237,74.314779 C233.473068,74.6895133 233.372748,75.1117634 233.07179,76.3785138 L232.886055,77.1763011 C232.338245,79.5118767 231.847194,81.8494912 231.457855,84.2173247 L231.637214,84.306582 L231.794011,84.382967 C231.868218,84.418396 231.937224,84.4500209 232.005919,84.4793763 L232.080004,84.5101833 L232.155206,84.5396615 L232.308807,84.5944679 C232.658708,84.7117816 233.142775,84.8270018 234.209887,85.0810016 L235.017369,85.270188 C236.992373,85.7475273 238.928714,86.103436 240.949894,86.3230514 L241.376738,84.7551247 C242.180305,81.794679 242.952059,78.8360142 243.410793,75.7944179 C240.264565,74.9105216 237.161628,74.1468588 233.918754,73.6886913 Z M220.559587,70.5301012 L220.398331,70.8561672 C220.142025,71.3904832 220.065683,71.6896908 219.56946,73.6345401 L219.329138,74.588012 C218.737144,76.8658139 218.308633,79.0637633 218.098688,81.4096891 C221.465403,82.3227779 224.85676,82.9421956 228.293842,83.5154158 L229.128789,80.0497406 C229.724611,77.5875423 230.275857,75.123514 230.754741,72.6358279 L229.191592,72.2828107 C226.325982,71.6381646 223.459332,71.0146891 220.559587,70.5301012 Z M250.090376,62.1071945 L249.926758,62.4377482 C249.679864,62.9511901 249.619959,63.1996466 249.243412,64.7613732 L249.057678,65.550935 C248.447847,68.1333171 247.977901,70.7061533 247.629477,73.3377368 L247.961935,73.5010809 C248.480052,73.7460458 248.776795,73.8088552 250.631445,74.2014138 L251.540549,74.3906001 C253.631447,74.8378818 255.698611,75.2081885 257.824631,75.4434635 L258.12993,74.1572039 L258.681551,71.8023111 C259.28522,69.273608 259.745933,66.8081941 259.933973,64.2129212 L259.287444,63.9997022 C258.815925,63.848223 258.636979,63.8094171 257.952774,63.6610419 L254.418922,62.962646 C252.976209,62.6768028 251.533445,62.3912444 250.090376,62.1071945 Z M238.039936,59.6436588 L237.840706,59.6472606 C237.130324,59.670925 237.079873,59.8683582 236.444197,62.3560157 L236.203874,63.3136004 C235.576092,65.7183604 235.15248,68.0492988 234.973425,70.5301012 L235.335403,70.7087408 C235.71362,70.8897764 235.854527,70.922915 236.530884,71.0819805 L238.737557,71.535668 L239.939168,71.7803764 C241.330545,72.0665309 242.721997,72.3522675 244.113907,72.6358279 C244.359595,71.6838662 244.603843,70.7315644 244.846546,69.7788394 L245.146606,68.5998518 C245.765156,66.2043913 246.338022,63.8708061 246.574806,61.4052856 L245.419775,61.0985514 C242.98495,60.4566174 240.566246,59.8668056 238.039936,59.6436588 Z M223.7236,56.4919233 C222.78785,60.1004789 221.958549,63.7087846 221.262701,67.3715112 L222.434762,67.6762442 L224.580521,68.2269627 C226.877809,68.8276422 229.090059,69.2680363 231.457855,69.4772379 L231.550938,69.2907375 C231.608151,69.1752026 231.656443,69.0748699 231.700397,68.975367 L231.73019,68.9064362 C231.910335,68.4800025 232.030704,68.0082405 232.447982,66.372799 L232.688304,65.4193271 C233.280298,63.1415253 233.708809,60.9435758 233.918754,58.59765 L233.604968,58.4428887 C233.072734,58.1878713 232.811684,58.1290327 231.05892,57.7339731 L230.205433,57.5447867 C228.046164,57.0494189 225.930206,56.7031831 223.7236,56.4919233 Z M218.186921,54.8871807 L210.364434,53.3333333 L210.215131,53.6354929 C209.953783,54.1816811 209.881348,54.4970229 209.374307,56.7044153 L209.133984,57.7641332 L208.893662,58.7991746 L208.506848,60.5012985 C208.45572,60.7327384 208.413541,60.9341185 208.374692,61.1406092 L208.326219,61.4112022 C208.220905,62.0292662 208.123095,62.8104031 207.903535,64.5638756 L217.747131,66.6696023 L218.083179,66.1635035 C218.459071,65.5885863 218.495846,65.4712837 218.685847,64.8652201 L219.119714,63.0414736 L219.35111,62.0413905 C219.879598,59.843386 220.323929,57.6885114 220.559587,55.43906 C219.771739,55.2342085 218.98413,55.0529223 218.186921,54.8871807 Z M252.902833,49.1218799 C252.644757,50.1853817 252.389003,51.2493724 252.135861,52.3140574 L251.826189,53.6184838 L251.512397,54.9105719 L251.220577,56.1478235 L251.099846,56.6484357 C250.868115,57.620363 250.777063,58.1974992 251.145047,59.2995589 C251.83978,59.5128434 252.538326,59.7185856 253.248381,59.8736299 L254.11131,60.0453371 C256.399974,60.5267631 258.651025,60.9037755 260.988644,61.0543311 L261.295641,59.7885753 C262.00474,56.8363953 262.656031,53.889565 263.097986,50.8766522 L261.925749,50.6347847 L259.780167,50.1966779 C257.489642,49.7219108 255.232298,49.3466204 252.902833,49.1218799 Z M240.598337,46.3142444 L240.500634,46.5102348 C240.455634,46.6014583 240.415851,46.6843338 240.378759,46.7670039 L240.337011,46.8627645 L240.29679,46.9611226 C240.115728,47.4193355 239.955354,48.0449357 239.44891,50.0205153 L239.148164,51.205672 L238.839179,52.3867159 L238.425591,54.012643 C238.19739,54.9239201 238.133101,55.4260727 238.488995,56.4919233 C239.197087,56.7052372 239.908902,56.9110119 240.631982,57.0663371 L241.499202,57.2377015 C243.537017,57.6742227 245.557963,58.014553 247.629477,58.2466956 L247.936474,56.9809397 C248.645573,54.0287597 249.296865,51.0819294 249.738819,48.0690166 C246.714604,47.2396122 243.709063,46.7047155 240.598337,46.3142444 Z M226.887614,43.1556543 L226.582357,44.3257057 L226.030693,46.4677869 C225.428982,48.7611376 224.987832,50.9695964 224.778271,53.3333333 C228.161403,54.1576587 231.524184,54.9348346 234.973425,55.43906 L235.460289,53.6999017 C236.232756,50.9244942 236.939405,48.171416 237.082767,45.261381 C236.294919,45.0565296 235.507309,44.8752433 234.7101,44.7095017 L226.887614,43.1556543 Z M213.528447,40.3480188 L213.492575,40.3838972 C213.457757,40.4188575 213.426008,40.4513629 213.396449,40.4841114 L213.367589,40.517041 L213.340928,40.5495512 L213.305989,40.5962402 C213.169406,40.7895415 213.067291,41.0724981 212.869713,41.8450778 L212.734425,42.3879328 C212.634195,42.7977713 212.513067,43.3054109 212.361855,43.9391327 L212.056302,45.2394464 L211.73839,46.5356473 L211.288907,48.4451348 C211.169014,48.9690282 211.148721,49.1399803 211.067548,49.8237888 L211.28887,50.0430053 C211.877686,50.6157518 212.066719,50.6580089 213.904895,51.0689231 L214.758897,51.2495413 C217.04243,51.7452486 219.278055,52.1300055 221.614258,52.28047 L221.950985,50.8829063 C222.620222,48.0882723 223.256578,45.2940202 223.7236,42.4537454 L222.983517,42.2641266 C222.922566,42.2488279 222.863213,42.2340695 222.804493,42.2196387 L222.378686,42.1183102 C221.767924,41.9778522 220.98952,41.8191009 219.086756,41.4310422 L217.856993,41.1815356 L216.61487,40.9238034 L215.435918,40.685264 C214.803346,40.5558537 214.167881,40.4377382 213.528447,40.3480188 Z M256.418403,34.7327476 L256.327599,34.9147201 C256.285666,34.9994595 256.248533,35.0761385 256.214393,35.1506531 L256.184131,35.2179614 L256.129902,35.3465647 L256.091936,35.4446137 C256.010718,35.6625682 255.934322,35.9227389 255.824663,36.3493374 L255.732312,36.7156133 C255.65109,37.0425948 255.552884,37.4477975 255.428275,37.9619398 L255.187953,38.9661356 C254.612754,41.3007236 254.17371,43.5670264 253.957504,45.9632899 C254.833342,46.1735694 255.709652,46.3815465 256.586628,46.5870566 L257.670825,46.840676 L258.174278,46.9611997 C260.177515,47.4377092 262.062807,47.8351038 264.152657,47.7180621 C264.721498,45.0422093 265.304919,42.3699055 265.89722,39.6993165 L266.613556,36.4875198 L264.850074,36.0980966 C262.061607,35.4862613 259.283873,34.9203252 256.418403,34.7327476 Z M243.76235,31.925112 L243.34854,33.5189082 C242.52571,36.7047376 241.747572,39.8852745 241.301451,43.1556543 L242.348692,43.3975514 L244.267713,43.8356286 C246.442636,44.3413472 248.569016,44.6992525 250.79349,44.9104266 C251.679016,41.1801811 252.472337,37.432849 253.25439,33.6798843 C252.6038,33.5178923 251.953048,33.3565256 251.3016,33.1980073 L250.485878,32.99991 C248.249256,32.4397334 246.06216,32.104974 243.76235,31.925112 Z M230.051627,28.766522 L229.746695,30.1238268 L229.194706,32.6050863 L229.001058,33.4713972 C228.523535,35.6338171 228.104336,37.7755244 227.942285,39.9970643 L228.050449,40.1035429 C228.36109,40.3998474 228.543359,40.4409986 230.402497,40.8607413 L231.260104,41.0499276 C233.547387,41.5772984 235.796692,41.9154332 238.137438,42.102791 L238.413745,41.0400317 L238.703045,39.9190645 C239.46888,36.9301642 240.179754,33.9407532 240.598337,30.8722487 C237.120828,29.9124675 233.610713,29.3231566 230.051627,28.766522 Z" id="Shape" fill-opacity="0.498060533" fill="#808080" fill-rule="nonzero"></path>
                <path d="M237.737722,12.5508839 C245.846437,11.7182013 254.227391,13.4816367 260.800484,18.2087834 C262.139535,19.2877228 263.357303,20.482774 264.579067,21.6919688 L265.403991,22.4608661 C271.865906,28.5955449 275.07362,38.0888605 275.418753,46.8218441 C275.762059,62.979792 271.162565,78.3486331 259.886363,90.2623272 C257.885605,92.3307216 255.769063,93.8384664 253.57803,95.4279529 C252.366677,96.3067299 251.132285,97.2036841 249.874937,98.1940488 C249.68957,98.340055 249.302176,98.4555961 249.000673,98.5993661 C248.378527,98.8960328 247.830266,99.1776287 247.517681,99.3735806 C241.989017,102.839359 231.208035,105.046043 220.395808,100.510428 C209.828462,96.0775366 205.765348,90.3044058 204.802591,87.974525 C203.626476,85.0540188 202.628904,82.065966 201.643696,79.0709488 L201.375341,78.2582947 C197.900718,67.5751906 198.484084,56.6322884 201.996279,46.0045878 L202.310792,45.0500219 C205.103224,36.764063 209.322598,29.9087768 215.345893,23.5939249 L215.98303,22.8873646 C221.592147,16.8802985 229.556033,13.3910602 237.737722,12.5508839 Z" id="Path" stroke="#342619" stroke-width="9.83862188" fill-rule="nonzero"></path>
                <path d="M117.938073,6.40854699 C118.220286,6.40631679 118.5025,6.40408659 118.793266,6.40113731 C131.714697,6.33836078 143.368712,10.9072458 152.817747,19.6886084 C155.407489,22.2739115 157.51132,25.1704228 159.355883,28.3212653 C159.543046,28.6383993 159.730209,28.9555332 159.923044,29.2822773 C160.091173,29.5876488 160.259303,29.8930203 160.432527,30.2076455 C160.581623,30.478182 160.730719,30.7487185 160.884333,31.0274531 C161.197782,32.1254559 160.946846,32.5938005 160.410555,33.585582 C159.877726,34.3066837 159.877726,34.3066837 159.267994,34.9455305 C159.070408,35.1617788 158.872822,35.378027 158.669249,35.6008283 C157.949655,36.0422631 157.949655,36.0422631 156.904597,36.0340376 C155.620374,35.6204821 155.203623,35.1573645 154.368168,34.1120137 C148.212421,26.9101308 138.64032,22.6194518 129.267461,21.7112234 C121.834242,21.2023648 115.172263,21.7203772 108.380117,24.8117208 C108.054734,24.9569419 107.729352,25.1021631 107.394109,25.2517848 C103.740774,26.973067 100.757107,29.4312702 97.8334061,32.1817642 C97.6167866,32.3753924 97.4001671,32.5690205 97.1769833,32.7685162 C91.280028,38.2484391 87.5588517,47.016127 87.19606,54.9458212 C86.8978861,64.9631421 91.2472648,73.4005254 97.1302921,81.3153868 C97.0142783,81.5470168 96.8982645,81.7786467 96.7787351,82.0172957 C96.3871885,81.9593883 95.9956419,81.9014808 95.5922302,81.8418185 C94.4161594,81.6503568 94.4161594,81.6503568 93.614722,81.6663413 C93.6401,81.8758035 93.665478,82.0852658 93.6916251,82.3010753 C95.2996346,97.3057355 90.8096525,110.975825 81.4640327,122.662208 C75.8673852,129.345147 67.9306914,135.398669 59.8652487,138.871916 C59.6332211,138.756101 59.4011935,138.640286 59.1621347,138.520962 C59.3538294,138.337739 59.5455241,138.154516 59.7430277,137.965741 C65.3646568,132.488051 70.5205328,125.794397 73.5759722,118.516558 C73.5759722,118.053298 73.5759722,117.590039 73.5759722,117.11274 C72.5246919,117.007973 72.0037031,116.967803 71.154898,117.630947 C69.634853,119.441341 68.2469444,121.319886 66.8902093,123.253415 C58.8458271,134.598894 48.6134572,143.190687 35.9593718,148.852183 C35.5609709,149.030599 35.1625699,149.209016 34.7520962,149.392838 C28.1175863,152.300153 28.1175863,152.300153 25.0611044,151.857231 C23.9908171,151.289959 23.0430131,150.67105 22.2486483,149.751504 C22.2486483,148.347686 22.2486483,148.347686 22.7024281,147.874121 C23.0209421,147.66405 23.0209421,147.66405 23.3458907,147.449736 C23.5848293,147.287748 23.8237679,147.12576 24.0699471,146.958863 C24.3317712,146.787431 24.5935954,146.615999 24.8633536,146.439371 C25.41472,146.064744 25.9653815,145.68908 26.5153969,145.312479 C26.7992569,145.118964 27.0831168,144.925449 27.3755786,144.726069 C31.1579158,142.099985 34.7394664,139.193048 38.2204602,136.184236 C38.7663668,135.71799 39.3196056,135.262297 39.8759367,134.808522 C45.5531181,130.136957 50.993385,124.838127 55.2950075,118.867513 C55.5601172,118.514639 55.8252269,118.161765 56.0983702,117.798198 C58.6961218,114.441036 58.6961218,114.441036 59.8652487,110.444606 C58.0242592,111.129289 56.9921158,111.781069 55.6465646,113.252242 C55.1351102,113.757984 54.622292,114.262354 54.1085026,114.765733 C53.141511,115.71527 52.2313778,116.693322 51.3468575,117.718685 C49.9275182,119.349957 48.413435,120.87555 46.8796115,122.398992 C46.6124625,122.66704 46.3453135,122.935088 46.0700691,123.211259 C44.3979538,124.877658 42.6787121,126.462114 40.88117,127.992328 C40.5968144,128.237771 40.5968144,128.237771 40.3067142,128.488171 C36.4812999,131.787961 32.4921242,134.835392 28.400896,137.797118 C28.1316228,137.992273 27.8623495,138.187428 27.5849164,138.388497 C26.3040512,139.309682 25.0285858,140.196732 23.6548763,140.977643 C24.135297,138.460406 24.9225249,136.207558 25.9180246,133.848881 C26.0720488,133.482802 26.226073,133.116724 26.3847646,132.739553 C29.2189674,126.146928 32.6895355,120.407416 37.6408546,115.202369 C39.4116968,113.339667 41.0427728,111.406801 42.6389551,109.391743 C42.988356,108.961508 42.988356,108.961508 43.3448156,108.522582 C47.7691719,103.817275 47.7691719,103.817275 50.0216523,98.1612003 C47.1572329,98.5434612 45.4152986,100.937774 43.6936261,103.074563 C43.1117071,103.663462 42.5250437,104.247698 41.935841,104.829335 C41.5750859,105.192246 41.2148274,105.55565 40.854992,105.91947 C39.7966097,106.988501 38.7361118,108.055412 37.674843,109.121587 C37.2184046,109.580794 36.7625961,110.040626 36.3074098,110.501071 C35.6469473,111.168911 34.9842433,111.834461 34.3210612,112.499609 C34.0172445,112.808339 34.0172445,112.808339 33.7072902,113.123306 C32.7643533,114.064888 31.9556196,114.871179 30.6860166,115.357968 C30.8884509,113.684854 31.2228302,112.166511 31.7544203,110.567988 C31.8992677,110.131251 32.044115,109.694513 32.1933516,109.244541 C32.3498015,108.781707 32.5065313,108.318967 32.6635248,107.856317 C32.7428524,107.620919 32.8221799,107.385522 32.9039114,107.142991 C37.5048676,93.5119305 44.5509005,80.7243955 53.8887795,69.7338901 C54.1955752,69.3591696 54.5017874,68.9839725 54.8074968,68.6083682 C56.3836338,66.6887994 57.9633059,64.9363841 59.8432764,63.3070368 C63.4800931,60.0947711 63.9936495,55.555261 64.9408531,50.9797618 C65.5448292,48.1482178 66.2225227,45.422927 67.247946,42.7103976 C67.3988546,42.2769963 67.5497632,41.843595 67.7052448,41.3970603 C72.1291191,28.8540614 81.0218401,18.9910593 92.5600509,12.5283152 C92.8940438,12.3374014 93.2280367,12.1464877 93.5721506,11.9497887 C96.9169891,10.1543664 100.531246,9.03311564 104.161432,7.96590735 C104.427392,7.88509701 104.693351,7.80428666 104.96737,7.72102752 C109.230807,6.47834109 113.531408,6.42638519 117.938073,6.40854699 Z" id="Path" fill="#9C6233" fill-rule="nonzero"></path>
                <path d="M96.0756211,109.391743 C96.7787351,109.742697 96.7787351,109.742697 97.0776787,110.472196 C97.1761602,110.789725 97.2746416,111.107255 97.3761074,111.434407 C97.4880992,111.786546 97.6000911,112.138684 97.7154766,112.501494 C97.8341529,112.879532 97.9528291,113.257571 98.0751016,113.647065 C99.1783906,117.051798 100.386076,120.25915 102.05209,123.429921 C102.28661,123.887978 102.28661,123.887978 102.525868,124.355289 C106.933409,132.321445 115.014927,138.007468 123.659629,140.528154 C134.976452,143.651895 146.560023,142.952296 156.923651,137.159642 C161.787088,134.322455 167.224619,130.11199 169.551037,124.833738 C169.667051,125.065368 169.783064,125.296998 169.902594,125.535647 C169.586095,126.384982 169.247113,127.191918 168.869895,128.014263 C168.756912,128.263791 168.643929,128.513319 168.527522,128.770409 C168.287373,129.299059 168.046016,129.827164 167.803551,130.354759 C167.459094,131.112637 167.127694,131.874935 166.799005,132.639733 C164.403127,138.104729 160.995402,142.635037 156.894984,146.943869 C156.489864,147.417171 156.086861,147.892293 155.686507,148.369621 C148.864652,156.123455 139.162876,161.276015 129.473537,164.491591 C128.983084,164.656407 128.983084,164.656407 128.482723,164.824552 C108.053396,171.566274 85.4560993,169.313955 66.3127494,159.846928 C60.8851494,157.088661 56.3424853,153.418026 52.1309944,149.049595 C52.9731472,148.086775 53.8017422,147.66401 54.976409,147.172811 C55.3352984,147.020154 55.6941878,146.867496 56.0639527,146.710213 C56.4482768,146.548451 56.8326008,146.386689 57.2285711,146.220025 C65.0493124,142.846222 72.411862,138.893866 78.8493274,133.256645 C79.1515978,132.993347 79.4538682,132.730049 79.7652982,132.458772 C80.6423543,131.682563 81.5056061,130.893776 82.3648976,130.098055 C82.5905807,129.895831 82.8162638,129.693607 83.0487858,129.485256 C88.9365361,123.964191 92.813695,116.659373 96.0756211,109.391743 Z" id="Path" fill="#FDE4B6" fill-rule="nonzero"></path>
                <path d="M263.63502,14.3003801 C265.130969,15.4958384 266.492732,16.8187558 267.851573,18.165553 C268.111113,18.4078812 268.370653,18.6502095 268.638058,18.899881 C276.013835,25.9032882 279.808328,36.7146996 280.194201,46.7235325 C280.576238,64.2438365 275.512057,80.8601324 263.326191,93.7574089 C260.047754,97.1641786 256.575659,100.090802 252.74226,102.847977 C252.226534,103.222559 251.710904,103.597274 251.195368,103.972116 C249.32852,105.325177 247.460294,106.676468 245.579475,108.010062 C241.454817,110.936565 237.720166,114.056492 234.119155,117.60591 L232.865993,118.817894 C230.527022,121.096438 228.413313,123.472899 226.388809,126.039014 C225.847733,126.691057 225.30602,127.342571 224.763679,127.993562 C221.731753,131.716705 219.052373,135.792575 216.901566,140.094188 C214.360368,139.536006 211.907539,138.807839 209.456716,137.94199 C209.191542,137.848626 208.926369,137.755261 208.653159,137.659068 C206.910235,137.0333 206.770801,136.983239 206.449347,136.668934 L206.360186,136.580395 C206.329074,136.153981 206.318704,136.011844 206.31606,135.724518 L206.31566,135.317378 C206.315825,135.260301 206.316035,135.19844 206.316263,135.130955 C206.315357,134.86915 206.314452,134.607345 206.313518,134.337606 C206.360186,133.417981 206.360186,133.417981 206.534331,132.346428 C206.741491,130.723945 206.775098,129.140009 206.782939,127.506298 C206.785943,127.010071 206.785943,127.010071 206.789008,126.503819 C206.792318,125.803604 206.79462,125.103383 206.795979,124.403162 C206.799349,123.35684 206.810244,122.310774 206.821371,121.26451 C206.84635,116.783941 206.466644,112.523227 205.657427,108.118667 C205.54753,107.485656 205.54753,107.485656 205.435413,106.839856 C204.359537,100.908667 202.447341,95.519641 200.154772,89.9620658 C198.932276,86.9258764 197.893824,83.8198789 196.872943,80.7110778 C196.783316,80.4391946 196.693688,80.1673114 196.601345,79.8871893 C192.796356,68.1767632 193.378748,56.1754616 197.224323,44.5190045 C197.329747,44.1984858 197.435171,43.8779671 197.54379,43.5477357 C200.56411,34.5628029 205.121219,27.1234681 211.630876,20.2738291 C211.835157,20.0469012 212.039437,19.8199733 212.249908,19.5861688 C225.044493,5.82473802 248.523599,3.33543733 263.63502,14.3003801 Z M215.496049,110.578323 L215.496131,110.66593 C215.497078,110.982056 215.508907,111.123989 215.656769,112.898153 C215.680526,113.181365 215.703584,113.456247 215.726642,113.731129 C215.799816,114.607669 215.873028,115.484205 215.946425,116.360726 C215.997606,116.971861 216.048734,117.583001 216.099811,118.194144 C216.249755,119.989231 216.399877,121.784303 216.550187,123.579359 L216.901566,123.579359 C217.080303,123.364221 217.253783,123.155411 217.427263,122.946602 C218.452114,121.620688 219.486134,120.317776 220.606148,119.070448 C222.295959,117.242589 223.88778,115.415331 225.334671,113.389358 C224.594921,113.198964 223.855242,113.00829 223.115902,112.816307 C222.650452,112.695353 222.650452,112.695353 222.194218,112.576793 C220.123766,112.045125 218.087016,111.466564 216.063523,110.775716 C215.870582,110.708603 215.683315,110.643463 215.496049,110.578323 Z M212.171671,26.1347269 C204.367355,35.3629883 198.590429,47.7169219 198.570819,59.9632251 C198.56965,60.223551 198.56848,60.4838769 198.567275,60.7520915 C198.565506,61.3001544 198.564672,61.8482211 198.564728,62.3962869 C198.563963,63.2228145 198.557578,64.0491748 198.550917,64.8756732 C198.539614,67.7704999 198.641557,70.5041902 199.332599,73.3321114 C199.405665,73.6385887 199.478732,73.9450659 199.554012,74.2608304 C202.24538,85.0834597 205.98215,94.0772142 215.799388,100.196161 C222.74508,104.358813 230.985965,106.392328 238.994543,104.407223 C243.486563,102.995728 247.543708,101.087489 251.336743,98.2800455 C251.523925,98.144387 251.711106,98.0087285 251.90396,97.8689591 C263.288952,89.5708596 271.241462,77.5183021 274.52778,63.8448689 C274.629241,63.437214 274.730702,63.029559 274.835237,62.6095509 C277.611601,51.130356 276.164116,38.2708411 270.017497,28.1016278 C265.250536,20.8823502 259.233097,15.6202341 250.897519,12.9607464 C250.669317,12.8879347 250.441115,12.815123 250.205998,12.7401048 C236.208879,8.52408364 221.522141,15.9531036 212.171671,26.1347269 Z" id="Combined-Shape" fill="#765945" fill-rule="nonzero"></path>
                <path d="M174.824392,128.694237 C175.833413,128.90651 176.600853,129.20979 177.477549,129.748471 C177.713627,129.891261 177.949705,130.03405 178.192937,130.181167 C178.444479,130.334701 178.696022,130.488235 178.955187,130.646421 C185.400664,134.498672 192.245553,137.723443 199.433383,139.92478 C198.983924,142.60985 198.218167,145.107359 197.302069,147.667712 C197.174046,148.033932 197.046022,148.400151 196.91412,148.777468 C195.968629,151.455547 195.968629,151.455547 195.566256,151.857231 C192.634249,152.090929 189.92904,151.666707 187.084943,151.001779 C184.520587,150.416692 182.021193,149.942101 179.394633,149.751504 C179.066196,150.807988 179.027432,151.10847 179.394633,152.208185 C179.99535,152.573785 179.99535,152.573785 180.800861,152.910094 C181.174734,153.115032 181.548607,153.319971 181.933809,153.531119 C184.880541,155.112481 187.709043,156.18498 190.984428,156.898517 C191.698848,157.059954 192.403652,157.262722 193.105357,157.472502 C193.581028,158.89707 193.158851,159.498034 192.599994,160.872373 C192.350519,161.493295 192.350519,161.493295 192.096004,162.126761 C191.965035,162.443895 191.834066,162.761029 191.699129,163.087773 C181.285712,163.470432 171.694035,161.083795 162.695675,155.805468 C162.47458,155.67758 162.253486,155.549691 162.025691,155.417928 C160.889084,154.725896 160.146838,154.191396 159.70744,152.910094 C159.937655,152.675297 160.16787,152.440501 160.405061,152.198589 C166.742677,145.596249 171.681759,137.280386 174.824392,128.694237 Z" id="Path" fill="#995F31" fill-rule="nonzero"></path>
                <path d="M212.333635,101.793839 C213.356638,102.261252 214.285864,102.858113 215.232514,103.462891 C217.369781,104.770634 219.415644,105.962267 221.820877,106.71315 C222.110312,106.808722 222.399747,106.904295 222.697953,107.002763 C225.468223,107.808303 228.272471,108.008614 231.140322,108.181291 C231.626281,108.215517 231.626281,108.215517 232.122057,108.250435 C232.413559,108.267647 232.70506,108.284859 233.005395,108.302592 C233.958924,108.512032 234.284362,108.706715 234.821913,109.524185 C235.010557,110.510123 235.010557,110.510123 234.821913,111.632461 C234.187422,112.443366 233.601669,113.08315 232.857758,113.777797 C232.553139,114.07544 232.553139,114.07544 232.242367,114.379097 C231.591698,115.013351 230.934357,115.640075 230.275943,116.266276 C229.420835,117.088395 228.56873,117.913524 227.718835,118.74103 C227.511169,118.943104 227.303504,119.145178 227.089546,119.353376 C225.295068,121.119131 223.70817,122.987859 222.172257,124.984876 C222.054212,125.136107 221.980434,125.230626 221.917387,125.311397 L221.795666,125.467337 C221.732023,125.548872 221.656755,125.6453 221.536325,125.799586 C220.960191,126.542006 220.390202,127.288674 219.822407,128.037484 C219.636471,128.281398 219.450535,128.525312 219.258965,128.776616 C218.506738,129.764547 217.755333,130.752195 217.021495,131.753904 C216.83471,132.008179 216.647925,132.262454 216.455479,132.524434 C216.287973,132.754901 216.120466,132.985367 215.947884,133.222818 C215.269256,134.04369 214.846597,134.114945 213.783075,134.230546 C212.685014,134.120739 212.685014,134.120739 211.919889,133.618119 C210.952923,132.254781 211.124072,131.032568 211.179299,129.403197 C211.184217,129.075776 211.189136,128.748355 211.194204,128.411013 C211.204741,127.711283 211.218086,127.011592 211.233977,126.311964 C211.386068,119.304132 211.353795,112.588133 209.393835,105.806049 C209.123418,104.773773 209.012388,103.906862 209.171221,102.847977 C209.959668,101.533898 210.902531,101.639214 212.333635,101.793839 Z M215.496049,110.578323 L215.496707,110.745634 C215.500163,111.019082 215.521764,111.278264 215.656769,112.898153 C215.680526,113.181365 215.703584,113.456247 215.726642,113.731129 C215.799816,114.607669 215.873028,115.484205 215.946425,116.360726 C215.997606,116.971861 216.048734,117.583001 216.099811,118.194144 C216.249755,119.989231 216.399877,121.784303 216.550187,123.579359 L216.901566,123.579359 C217.080303,123.364221 217.253783,123.155411 217.427263,122.946602 C218.452114,121.620688 219.486134,120.317776 220.606148,119.070448 C222.295959,117.242589 223.88778,115.415331 225.334671,113.389358 C224.594921,113.198964 223.855242,113.00829 223.115902,112.816307 C222.650452,112.695353 222.650452,112.695353 222.194218,112.576793 C220.123766,112.045125 218.087016,111.466564 216.063523,110.775716 C215.870582,110.708603 215.683315,110.643463 215.496049,110.578323 Z" id="Combined-Shape" fill="#342718" fill-rule="nonzero"></path>
                <path d="M133.692221,37.4460809 C136.376612,39.2998755 138.092859,41.6789612 138.965577,44.8161243 C139.371518,49.0570647 138.845873,52.1369479 136.153121,55.454431 C134.028999,57.6654418 131.460955,58.9040348 128.374922,59.0297794 C124.597346,58.7827904 122.158198,57.4800254 119.629941,54.6428489 C117.459836,51.5721472 117.219838,48.5177817 117.520599,44.8161243 C117.844343,43.657333 118.309762,42.6870552 118.926827,41.6575343 C119.137102,41.2883741 119.347377,40.9192139 119.564024,40.538867 C123.078897,36.0274899 128.617713,34.6354264 133.692221,37.4460809 Z" id="Path" fill="#332619" fill-rule="nonzero"></path>
                <path d="M81.3102265,172.563543 C81.8085606,172.603937 82.3065432,172.648662 82.8043438,172.695151 C83.0816894,172.719581 83.3590349,172.744011 83.6447848,172.769181 C84.5493575,172.927658 85.1249332,173.091648 85.8804677,173.616406 C86.2787159,174.374523 86.2787159,174.374523 86.6275263,175.393113 C86.7729968,175.794847 86.9184672,176.19658 87.0683459,176.610487 C87.1540534,176.848903 87.2397608,177.087319 87.3280655,177.332959 C87.9959187,179.15414 88.7076379,180.958189 89.4180101,182.763157 C89.5669361,183.151572 89.715862,183.539988 89.8693009,183.940174 C90.0144881,184.308627 90.1596753,184.67708 90.3092621,185.056699 C90.5023588,185.553479 90.5023588,185.553479 90.6993565,186.060295 C91.2190068,187.080669 91.6339114,187.674905 92.5600509,188.356493 C93.6930853,188.527234 93.6930853,188.527234 94.9577796,188.444232 C95.1893505,188.438916 95.4209215,188.4336 95.6595097,188.428124 C96.6448262,188.405346 97.6293023,188.366186 98.6141099,188.327704 C102.583115,188.186064 105.883269,188.46777 108.917065,191.260093 C109.804508,192.29876 110.301402,193.423915 110.841016,194.673673 C110.608988,195.021118 110.37696,195.368563 110.137902,195.726537 C108.172863,195.460362 106.686174,194.481439 104.988141,193.512508 C103.089983,192.556221 101.384602,192.120793 99.2616065,192.173123 C98.9248945,192.179457 98.5881826,192.18579 98.2412672,192.192316 C97.9906592,192.200459 97.7400513,192.208602 97.4818491,192.216992 C97.3658353,192.680252 97.2498215,193.143512 97.1302921,193.62081 C97.4357347,193.870988 97.7411774,194.121167 98.0558758,194.378926 C102.495588,198.047117 102.495588,198.047117 103.809875,199.93799 C103.63372,201.166706 103.63372,201.166706 103.106761,201.692762 C101.507587,201.988398 100.727989,201.985204 99.3591087,201.062141 C98.6961555,200.507369 98.0403435,199.944003 97.3912133,199.373173 C94.4647108,196.826236 91.4162239,194.982776 87.4652208,194.978017 C86.9193667,194.977338 86.9193667,194.977338 86.3624853,194.976646 C85.7975977,194.978682 85.7975977,194.978682 85.2212983,194.980758 C84.8474257,194.979401 84.473553,194.978044 84.0883509,194.976646 C82.1848503,194.979006 80.3809805,195.073191 78.4977704,195.375582 C77.7660359,195.413888 77.033264,195.436697 76.3005391,195.441386 C75.7648815,195.448851 75.7648815,195.448851 75.2184027,195.456466 C74.2790863,195.375582 74.2790863,195.375582 73.2244152,194.673673 C73.3278976,193.709493 73.5667733,193.280305 74.2131693,192.546012 C76.93879,190.892102 80.4101424,190.626235 83.524967,190.142711 C84.7629418,189.941549 85.5238116,189.763705 86.5835817,189.058402 C86.7711544,187.480658 86.44786,186.399343 85.7870854,184.975815 C85.5348913,184.420717 85.5348913,184.420717 85.2776023,183.854406 C85.099503,183.472578 84.9214037,183.090751 84.7379074,182.697353 C81.3102265,175.27895 81.3102265,175.27895 81.3102265,172.563543 Z" id="Path" fill="#F77127" fill-rule="nonzero"></path>
                <path d="M46.5060822,151.506276 C47.0265514,152.034079 47.0265514,152.034079 47.6266702,152.756552 C48.6777952,154.004694 49.7896535,155.112722 51.0104064,156.194808 C51.4278804,156.770593 51.4278804,156.770593 51.4306269,157.417665 C50.9138328,158.521469 50.1121059,159.325192 49.2745937,160.192399 C48.9437128,160.541166 48.6132193,160.8903 48.283093,161.239779 C48.1099787,161.422323 47.9368643,161.604867 47.7585041,161.792943 C47.1645604,162.434044 46.5918757,163.090569 46.0199448,163.751296 C37.277112,173.777205 37.277112,173.777205 32.5028523,174.460891 C30.1955505,174.533342 28.7974612,174.337982 27.0386126,172.79797 C26.3166604,172.058198 25.6579404,171.301885 25.0611044,170.457816 C25.5792175,169.268214 26.2481104,168.473279 27.1536239,167.548305 C27.4403375,167.254206 27.7270511,166.960108 28.022453,166.657097 C28.3340489,166.341951 28.6456448,166.026805 28.9666831,165.70211 C29.2895519,165.374961 29.6124206,165.047812 29.9450733,164.71075 C30.6304805,164.017566 31.3175996,163.326118 32.005557,162.635457 C32.7040974,161.933492 33.3986805,161.227973 34.0898369,160.518763 C42.8776103,151.506276 42.8776103,151.506276 46.5060822,151.506276 Z" id="Path" fill="#9F6333" fill-rule="nonzero"></path>
                <path d="M124.551739,172.563543 C125.200266,173.172401 125.200266,173.172401 125.743737,174.035907 C125.949707,174.356773 126.155677,174.677639 126.367888,175.008229 C126.580656,175.359632 126.793423,175.711036 127.012638,176.073088 C127.345385,176.612408 127.345385,176.612408 127.684854,177.162623 C128.378314,178.300323 129.059452,179.44454 129.737205,180.591626 C130.196078,181.366159 130.655637,182.140287 131.115968,182.913958 C131.315706,183.251845 131.515445,183.589733 131.721236,183.93786 C132.263547,184.844868 132.263547,184.844868 132.886456,185.6258 C133.340664,186.250767 133.340664,186.250767 133.340664,186.952675 C133.917321,186.936135 133.917321,186.936135 134.505626,186.919259 C135.948939,186.880787 137.392208,186.856843 138.835889,186.837004 C139.457486,186.826496 140.079031,186.812187 140.700445,186.793821 C145.498922,186.655679 148.522054,187.158339 152.192909,190.484155 C153.205443,191.49289 153.548611,192.201327 153.730971,193.62081 C153.014125,194.054019 153.014125,194.054019 151.973186,194.322719 C151.03098,193.926461 150.245429,193.530284 149.380453,193.00664 C147.028675,191.622805 144.953287,190.700245 142.151562,190.769305 C141.81485,190.775639 141.478138,190.781972 141.131223,190.788498 C140.880615,190.796641 140.630007,190.804784 140.371805,190.813174 C140.255791,191.276434 140.139777,191.739694 140.020248,192.216992 C140.39616,192.522364 140.39616,192.522364 140.779666,192.833904 C141.47609,193.400943 142.170899,193.969963 142.864289,194.540695 C143.462623,195.028964 144.065745,195.511677 144.679751,195.980156 C145.780358,196.840324 146.276774,197.262979 146.721803,198.621911 C146.699831,199.587036 146.699831,199.587036 145.996717,200.288944 C144.588386,200.451166 143.763444,200.409815 142.503119,199.740578 C141.667231,199.07642 140.893435,198.39826 140.108137,197.678721 C136.905282,194.839995 132.855329,193.474397 128.609751,193.549522 C127.713574,193.602646 127.713574,193.602646 126.839606,193.8004 C125.900621,193.982911 125.045694,194.006416 124.090321,193.993699 C123.779893,193.990532 123.469465,193.987365 123.149631,193.984103 C122.916244,193.980031 122.682857,193.975959 122.442397,193.971764 C122.326383,193.39269 122.210369,192.813615 122.09084,192.216992 C123.760617,190.609035 125.967332,188.707448 128.418866,188.707448 C128.809094,186.076998 127.456592,184.32666 126.111773,182.148986 C125.679193,181.431084 125.246614,180.713181 124.814034,179.995278 C124.135207,178.877035 123.455246,177.759555 122.772153,176.643903 C122.544148,176.265072 122.316142,175.886242 122.081227,175.495932 C121.87234,175.152191 121.663453,174.80845 121.448236,174.454293 C121.244263,174.039539 121.244263,174.039539 121.036169,173.616406 C121.717383,172.256314 123.196767,172.41832 124.551739,172.563543 Z" id="Path" fill="#F77127" fill-rule="nonzero"></path>
                <path d="M16.2721791,153.261049 C17.3650646,153.748625 18.1297621,154.328425 18.9967459,155.147429 C21.4344378,157.330768 23.7975147,158.235885 27.0605849,158.196345 C27.3073409,158.194762 27.5540968,158.193179 27.8083302,158.191547 C28.4160149,158.18742 29.0236841,158.181126 29.6313456,158.174411 C27.8735605,159.929183 26.1157754,161.683955 24.3579904,163.438728 C24.0625177,163.735503 23.767045,164.032279 23.4626186,164.338048 C20.5090892,167.267735 17.5464509,170.058667 13.1960552,170.23847 C11.2525382,170.204181 9.92535494,169.731 8.53792477,168.35209 C7.31467055,166.566407 6.52473748,164.934097 6.78013971,162.736819 C8.84081991,159.168865 12.8524664,155.536949 16.2721791,153.261049 Z" id="Path" fill="#9D6233" fill-rule="nonzero"></path>
                <path d="M170.385985,45.1670788 C170.654465,45.2427713 170.922945,45.3184639 171.199561,45.3964501 C174.277779,46.3078921 177.250047,47.5490504 180.097747,49.0275777 C180.271768,49.3750226 180.271768,49.3750226 180.449304,49.7294866 C174.542239,51.3646266 168.669803,52.607404 162.607786,53.5022469 C162.341639,53.5418568 162.075492,53.5814668 161.80128,53.622277 C161.032199,53.7359823 160.262803,53.8471972 159.49321,53.9573909 C159.04377,54.0219714 158.59433,54.0865518 158.13127,54.1530892 C157.002172,54.2798599 155.920387,54.3184818 154.785642,54.2918944 C156.455868,50.5403278 159.309365,46.4862982 163.223011,44.838059 C165.578752,43.9614193 168.058429,44.498563 170.385985,45.1670788 Z" id="Path" fill="#F9B323" fill-rule="nonzero"></path>
                <path d="M198.730269,159.929183 C200.814736,160.085456 202.613135,160.73964 204.552932,161.486543 C205.131889,161.705709 205.710949,161.924605 206.290118,162.143212 C206.560722,162.245851 206.831327,162.34849 207.110132,162.454239 C208.059034,162.806768 209.016555,163.128492 209.980093,163.438728 C209.813529,165.683487 209.34307,167.776717 208.222308,169.755908 C206.9412,170.182212 206.5417,169.986182 205.280765,169.563979 C204.726754,169.379399 204.726754,169.379399 204.16155,169.19109 C203.775895,169.058989 203.39024,168.926887 202.992898,168.790783 C202.609962,168.66411 202.227025,168.537438 201.832485,168.406926 C198.356652,167.234729 198.356652,167.234729 196.972484,166.246363 C196.574334,164.082373 197.458768,162.20539 198.378712,160.280137 C198.494726,160.164323 198.61074,160.048508 198.730269,159.929183 Z" id="Path" fill="#765946" fill-rule="nonzero"></path>
                <path d="M195.214699,170.457816 C197.399533,170.719963 199.389259,171.46702 201.454836,172.190654 C201.825083,172.3171 202.19533,172.443547 202.576797,172.573825 C202.929823,172.696652 203.28285,172.819479 203.646574,172.946029 C203.968218,173.057744 204.289862,173.169459 204.621252,173.284559 C205.409852,173.616406 205.409852,173.616406 206.112966,174.318315 C206.289042,175.841693 206.206402,176.6071 205.453797,177.959468 C204.727443,178.855191 204.469553,179.152825 203.363681,179.33998 C201.225354,179.459376 199.499974,178.984998 197.521792,178.244618 C197.276339,178.153205 197.030886,178.061791 196.777995,177.967608 C194.487781,177.063836 194.487781,177.063836 193.808471,176.073088 C193.598975,173.981717 193.912329,172.669169 194.863142,170.808771 C194.979156,170.692956 195.095169,170.577141 195.214699,170.457816 Z" id="Path" fill="#765A46" fill-rule="nonzero"></path>
                <path d="M201.894282,150.102459 C203.816092,150.335665 205.519304,150.944998 207.321443,151.61595 C207.609892,151.719776 207.89834,151.823602 208.19553,151.930575 C209.958396,152.580861 211.539192,153.337088 213.144106,154.313912 C212.954786,156.166071 212.520642,157.562506 211.737878,159.227274 C209.610924,159.331544 208.075895,159.059768 206.112966,158.262149 C205.868703,158.166862 205.624439,158.071575 205.372774,157.9734 C203.695445,157.309352 202.075595,156.576174 200.488054,155.71773 C200.672248,153.658296 201.107177,152.015603 201.894282,150.102459 Z" id="Path" fill="#765946" fill-rule="nonzero"></path>
                <path d="M204.706738,142.030506 C207.444639,142.562532 210.012229,143.42692 212.638743,144.355579 C213.271268,144.576804 213.271268,144.576804 213.916571,144.802498 C214.948698,145.163739 215.98022,145.526609 217.011234,145.891005 C216.961842,146.410307 216.910144,146.92939 216.857427,147.448366 C216.828877,147.737451 216.800327,148.026536 216.770911,148.324381 C216.659677,149.049595 216.659677,149.049595 216.30812,149.40055 C214.265315,149.516571 212.653851,149.263842 210.727152,148.610902 C210.484446,148.53159 210.241741,148.452279 209.99168,148.370563 C205.75183,146.96596 205.75183,146.96596 204.355181,146.24196 C203.866538,145.266348 203.938628,144.515744 204.003624,143.434324 C204.222972,142.959181 204.45502,142.489378 204.706738,142.030506 Z" id="Path" fill="#765946" fill-rule="nonzero"></path>
                <path d="M132.285993,40.9556254 C133.461126,41.3792516 133.673605,41.6296575 134.395336,42.7103976 C134.550377,44.1033834 134.510114,44.9329336 133.889972,46.1980075 C132.742746,47.1198018 132.015052,47.1582571 130.573526,47.0657972 C129.825094,46.921851 129.825094,46.921851 128.92423,46.3954193 C128.216837,45.1672809 128.1086,44.0705359 128.418866,42.7103976 C129.54058,41.1295161 130.359342,40.6691691 132.285993,40.9556254 Z" id="Path" fill="#F9F8F2" fill-rule="nonzero"></path>
                <path d="M169.551037,124.833738 C169.667051,125.065368 169.783064,125.296998 169.902594,125.535647 C169.56355,126.435412 169.202994,127.294881 168.803978,128.167806 C168.635013,128.545109 168.635013,128.545109 168.462635,128.930035 C167.588887,130.866531 166.667964,132.777215 165.68391,134.660463 C165.567896,134.313018 165.451882,133.965573 165.332353,133.6076 C164.629181,133.183358 164.629181,133.183358 163.926125,132.905691 C163.578083,133.253136 163.230042,133.60058 162.871454,133.958554 C162.639426,133.842739 162.407398,133.726924 162.16834,133.6076 C162.30823,133.471624 162.448121,133.335649 162.592251,133.195554 C163.236549,132.56712 163.87796,131.935823 164.519377,131.304461 C164.739395,131.090701 164.959414,130.876941 165.186099,130.656703 C166.940066,128.924078 168.545224,127.115758 169.551037,124.833738 Z" id="Path" fill="#FAEAC2" fill-rule="nonzero"></path>
                <path d="M170.957265,57.8014389 C170.393752,58.0874617 169.829691,58.3724064 169.265397,58.6568903 C168.951344,58.8156835 168.637291,58.9744767 168.313721,59.1380818 C166.763742,59.881284 165.438542,59.9713645 163.750346,59.9729695 C163.393468,59.9794163 163.393468,59.9794163 163.02938,59.9859932 C161.724123,59.9898483 161.173493,59.94698 160.058997,59.2052567 C161.440958,58.9455735 162.82351,58.6893327 164.206701,58.4362586 C164.677106,58.349692 165.14734,58.2621884 165.617392,58.1737282 C166.293238,58.0467075 166.969769,57.9233384 167.646312,57.800068 C168.053182,57.7247147 168.460051,57.6493615 168.879251,57.5717248 C169.902594,57.4504844 169.902594,57.4504844 170.957265,57.8014389 Z" id="Path" fill="#C8931E" fill-rule="nonzero"></path>
            </g>
        </g>
    </g>
</svg>